<?xml version="1.0" encoding="UTF-8" standalone="no"?>
<!-- Created with Inkscape (http://www.inkscape.org/) -->

<svg
   xmlns:dc="http://purl.org/dc/elements/1.1/"
   xmlns:cc="http://creativecommons.org/ns#"
   xmlns:rdf="http://www.w3.org/1999/02/22-rdf-syntax-ns#"
   xmlns:svg="http://www.w3.org/2000/svg"
   xmlns="http://www.w3.org/2000/svg"
   xmlns:sodipodi="http://sodipodi.sourceforge.net/DTD/sodipodi-0.dtd"
   xmlns:inkscape="http://www.inkscape.org/namespaces/inkscape"
   width="210mm"
   height="297mm"
   viewBox="0 0 210 297"
   version="1.1"
   id="svg8"
   inkscape:version="0.92.2 (5c3e80d, 2017-08-06)"
   sodipodi:docname="ground.svg"
   inkscape:export-filename="C:\Users\Thomas\Programmation\Alive\data\bg.png"
   inkscape:export-xdpi="96"
   inkscape:export-ydpi="96">
  <defs
     id="defs2" />
  <sodipodi:namedview
     id="base"
     pagecolor="#ffffff"
     bordercolor="#666666"
     borderopacity="1.0"
     inkscape:pageopacity="0.0"
     inkscape:pageshadow="2"
     inkscape:zoom="1.979899"
     inkscape:cx="465.96667"
     inkscape:cy="828.22613"
     inkscape:document-units="mm"
     inkscape:current-layer="layer1"
     showgrid="false"
     inkscape:window-width="3200"
     inkscape:window-height="1675"
     inkscape:window-x="-13"
     inkscape:window-y="67"
     inkscape:window-maximized="1" />
  <metadata
     id="metadata5">
    <rdf:RDF>
      <cc:Work
         rdf:about="">
        <dc:format>image/svg+xml</dc:format>
        <dc:type
           rdf:resource="http://purl.org/dc/dcmitype/StillImage" />
        <dc:title />
      </cc:Work>
    </rdf:RDF>
  </metadata>
  <g
     inkscape:label="Calque 1"
     inkscape:groupmode="layer"
     id="layer1">
    <rect
       id="rect3717"
       width="18.708866"
       height="18.708866"
       x="5.0113039"
       y="5.2753105"
       style="stroke-width:0.26458332;fill:#784421" />
    <rect
       id="rect3717-5"
       width="18.708866"
       height="2.6192412"
       x="5.0113039"
       y="5.2753105"
       style="fill:#44aa00;stroke-width:0.09899801" />
    <rect
       id="rect3717-9"
       width="18.708866"
       height="18.708866"
       x="32.13916"
       y="5.3421283"
       style="fill:#784421;stroke-width:0.26458332" />
    <path
       style="fill:#800000;stroke-width:0.26458332"
       id="path33"
       d="m 2.7496203,53.960111 c 0.7227941,0.312074 1.4884212,0.505878 2.2220375,0.791414 0.1132798,0.04228 0.2278629,0.08122 0.3398391,0.126849 0.3532306,0.143918 0.2901492,0.148871 0.6544262,0.267833 0.355002,0.115932 0.7190959,0.179088 1.0865718,0.238447 0.8196852,0.06309 1.6314483,0.191141 2.4498281,0.270005 0.770454,0.06977 1.54434,0.08339 2.317428,0.0909 0.695279,0.04237 1.206935,-0.04357 1.850498,-0.295418 0.382975,-0.08925 0.724078,-0.284779 1.081787,-0.43642 0.414641,-0.175779 0.818218,-0.318569 1.228983,-0.512381 0.237723,-0.144283 0.489902,-0.261967 0.732702,-0.396873 0.111471,-0.06193 0.441617,-0.255235 0.330395,-0.192855 -2.623037,1.471174 -1.361079,0.77351 -0.784867,0.411409 0.630504,-0.437184 1.242683,-0.900435 1.866308,-1.347663 0.573529,-0.367337 1.114695,-0.77923 1.67458,-1.166172 0.459976,-0.370721 0.945289,-0.707822 1.441704,-1.027478 0.590368,-0.355018 1.137044,-0.776362 1.673201,-1.207328 0.482752,-0.348107 0.958061,-0.706199 1.433918,-1.063728 0.5115,-0.321998 0.96946,-0.708986 1.427771,-1.10014 0.451104,-0.36059 0.942645,-0.665581 1.388812,-1.032129 0.456594,-0.399272 0.971918,-0.716884 1.463913,-1.067967 0.590026,-0.471988 1.209162,-0.904661 1.829255,-1.335609 0.919676,-0.654611 1.933581,-1.160566 2.924726,-1.696336 0.923835,-0.499383 -0.328737,0.152006 0.580218,-0.316603 0.540961,-0.295741 1.0826,-0.593297 1.63976,-0.857867 0.588108,-0.241366 1.198883,-0.41538 1.804231,-0.606536 0.599927,-0.187187 1.22937,-0.219173 1.852723,-0.245628 0.57064,-0.01791 1.141654,-0.01492 1.71249,-0.01373 0.55545,0.06013 1.050869,0.321408 1.517488,0.612629 0.535239,0.328001 0.919946,0.819984 1.354865,1.258536 0.410393,0.424555 0.721159,0.927647 1.081056,1.392981 0.06062,0.08651 0.118364,0.175101 0.181853,0.259524 0.180888,0.240525 0.178552,0.196443 0.345178,0.443132 0.14967,0.221589 0.276284,0.460751 0.420521,0.686181 0.243446,0.462706 0.507505,0.914953 0.750938,1.378085 0.328822,0.551053 0.666933,1.095619 0.968229,1.662912 0.300699,0.528386 0.644158,1.032139 0.98162,1.538465 0.332381,0.463933 0.634514,0.948105 0.944767,1.426744 0.253465,0.480676 0.478996,0.969634 0.784018,1.420696 0.35441,0.568095 0.71627,1.130313 1.070586,1.698792 0.399662,0.631391 0.898377,1.188987 1.405793,1.734158 0.518231,0.518359 1.013468,1.058405 1.522105,1.58537 0.267229,0.318045 0.610164,0.549601 0.921565,0.817716 0.171699,0.147834 0.333579,0.306816 0.505119,0.454837 0.355854,0.273977 0.683911,0.587844 1.048578,0.85076 0.736298,0.530858 -0.230759,-0.215392 0.53309,0.383908 0.375891,0.224719 0.752571,0.461256 1.148162,0.651783 0.56682,0.272994 -0.04937,-0.05801 0.478129,0.233592 0.541496,0.286869 1.087408,0.559393 1.651129,0.800632 0.609312,0.32662 1.27802,0.485254 1.957705,0.575987 0.583896,0.06195 1.171986,0.05891 1.758384,0.05979 0.674854,-0.05984 1.339131,-0.169323 1.976403,-0.402239 0.09779,-0.03475 0.196247,-0.06768 0.293376,-0.104235 0.248168,-0.09341 0.396144,-0.152971 0.631851,-0.278752 0.106863,-0.05703 0.419203,-0.242932 0.314031,-0.182843 -0.446444,0.255088 -1.784858,1.021938 -1.337857,0.767829 0.676209,-0.38441 1.350325,-0.772485 2.025488,-1.158729 -2.910935,1.726671 -0.246314,0.09441 0.387496,-0.308401 0.571225,-0.364122 1.122804,-0.754386 1.67246,-1.14966 0.547518,-0.375444 1.061884,-0.796605 1.57148,-1.221306 0.463515,-0.430408 0.921088,-0.867079 1.398174,-1.282695 0.518774,-0.418787 0.938787,-0.936831 1.343433,-1.462021 0.451125,-0.593971 0.897527,-1.192329 1.337961,-1.794409 0.400793,-0.528773 0.854426,-1.012569 1.32956,-1.474462 0.522684,-0.527611 0.985864,-1.108306 1.455785,-1.682094 0.387675,-0.560112 0.788519,-1.110808 1.175335,-1.671558 0.456419,-0.684136 0.991026,-1.309738 1.453888,-1.989635 0.463817,-0.699302 0.908346,-1.410822 1.364893,-2.115024 0.441788,-0.696873 0.952404,-1.347822 1.481481,-1.979951 0.414274,-0.538014 0.773938,-1.124532 1.246653,-1.614323 0.318881,-0.364559 0.664589,-0.706443 1.067353,-0.977329 0.996818,-0.659778 1.980581,-1.215104 3.112741,-1.541722 0.492445,-0.07074 0.954172,-0.251576 1.4415,-0.346202 0.302128,-0.02424 0.56034,0.0817 0.833464,0.191688 0.187177,0.07538 0.421598,0.1625 0.594911,0.266909 0.105722,0.06369 0.201075,0.14319 0.301611,0.214787 0.418121,0.307385 0.77402,0.685834 1.16935,1.019302 0.413925,0.324879 0.213241,0.160961 0.602615,0.491064 0.548503,0.377946 1.018879,0.857414 1.567995,1.231553 0.475507,0.318159 0.919517,0.683469 1.408396,0.981554 0.464727,0.287996 0.854167,0.679333 1.319175,0.966118 0.596487,0.349586 1.140709,0.77869 1.755831,1.095838 0.60206,0.376184 1.20373,0.751051 1.81574,1.111893 0.45441,0.204303 0.86279,0.49372 1.30518,0.71977 0.1938,0.09902 0.39315,0.186833 0.58785,0.28407 0.58236,0.293618 1.19726,0.504618 1.82144,0.689972 0.74786,0.265443 1.50326,0.508643 2.25129,0.773665 0.66399,0.236054 1.35513,0.386512 2.02382,0.606283 0.31055,0.102063 0.61425,0.223924 0.92257,0.332515 0.67875,0.192021 1.33843,0.44192 2.03084,0.582239 0.63727,0.174284 1.27582,0.347641 1.92554,0.469569 0.85228,0.143521 1.71861,0.158933 2.58063,0.175017 0.89017,0.100137 1.77931,0.189254 2.67427,0.23109 1.16203,0.04423 2.31904,0.171701 3.47992,0.242498 0.60514,0.05359 1.21452,0.02677 1.82025,0.0591 0.15565,0.0083 0.81381,0.07594 0.96436,0.09099 1.03365,0.110686 2.07268,0.147447 3.11131,0.170247 0.97998,0.01659 1.96015,0.01439 2.94023,0.014 0.99565,0.0019 1.99131,0.0011 2.98697,-0.0013 0.76414,-0.0029 1.52828,-0.0031 2.29242,-0.0046 0.77818,-9e-5 1.55635,0.0024 2.33453,0.0038 1.0234,0.0019 2.04681,0.0021 3.07022,0.0024 1.13481,0.0013 2.26963,0.0016 3.40445,0.0011 0.99736,-0.0021 1.99472,-0.0026 2.99208,-0.0031 0.95587,-7.93e-4 1.91174,0.0013 2.86761,7.94e-4 0.97757,0.0011 1.95514,-7.94e-4 2.93271,-5.29e-4 0.98795,0.0019 1.9759,-0.0011 2.96386,0.0011 1.0351,0.0016 2.07019,-5.29e-4 3.10529,-2.56e-4 1.03197,-1.06e-4 2.06394,0.0016 3.09591,-2.04e-4 0.95752,7.94e-4 1.91503,-2.65e-4 2.87255,-0.0021 0.78524,-0.0016 1.5705,-0.0019 2.35575,-0.0011 0.85332,-0.09034 1.70612,-0.176107 2.56321,-0.22206 0.8558,-0.04342 1.71297,-0.04327 2.56963,-0.04472 1.01028,1.8e-4 2.02055,0.0019 3.03083,0.0028 1.028,0.0016 2.056,-5.29e-4 3.08401,-2.64e-4 0.91129,-0.0011 1.82259,-0.0016 2.73389,-0.0011 0.9143,0.0013 1.82861,7.94e-4 2.7429,-0.0016 0.71241,1.98e-4 1.42481,-0.0021 2.13722,-0.0032 0.41319,0.01775 0.83005,-0.02379 1.24287,2.65e-4 0.10002,0.0058 0.67127,0.07619 0.76461,0.08743 0.88338,0.110091 1.77336,0.145714 2.66253,0.168619 0.85757,0.01762 1.71538,0.01627 2.57309,0.01672 0.89656,-0.09173 1.79261,-0.175183 2.69271,-0.224057 0.81736,-0.0254 1.62153,-0.183216 2.43634,-0.247827 0.7665,-0.05744 1.53539,-0.06188 2.30359,-0.06702 0.6596,0.04886 1.30213,-0.0975 1.95274,-0.17303 0.45857,-0.0084 1.08213,-0.158906 1.52672,-0.04916 0.078,0.01926 0.14933,0.05926 0.224,0.08889 0.43498,0.304641 0.47525,0.822703 0.50684,1.310817 0.0541,0.691608 -0.13212,1.360392 -0.29715,2.023899 -0.14374,0.562065 -0.27641,1.129138 -0.43627,1.686898 -0.15149,0.461148 -0.30308,0.923198 -0.47921,1.375564 -0.16683,0.437906 -0.45685,0.808868 -0.72318,1.188738 -0.3472,0.490927 -0.80881,0.882081 -1.25859,1.275078 -0.45426,0.448272 -0.97873,0.812903 -1.50666,1.16772 -0.85187,0.652824 -1.78755,1.128537 -2.73108,1.656757 -0.0632,0.0354 4.78745,-2.740893 -0.47776,0.272915 3.35991,-1.959851 0.13644,-0.0325 -0.97766,0.546785 -0.27733,0.144203 -0.31352,0.150119 -0.60299,0.265115 -0.7017,0.293071 -1.42056,0.538914 -2.13874,0.787469 -0.65265,0.193413 -1.31191,0.354745 -1.9855,0.454499 -0.89237,0.121425 -1.78247,0.239741 -2.68178,0.301775 -1.10568,0.05773 -2.21302,0.06137 -3.31987,0.06799 -1.00042,0.01939 -1.99556,-0.106886 -2.97827,-0.281495 -0.50843,-0.118314 -1.03193,-0.13245 -1.54697,-0.199477 -0.23321,-0.03035 -0.46325,-0.08146 -0.69496,-0.121685 -0.79141,-0.151236 -1.59964,-0.133895 -2.39724,-0.223792 -0.935,-0.113814 -1.87308,-0.171495 -2.80605,-0.3013 -0.89933,-0.133326 -1.79038,-0.303165 -2.69602,-0.394256 -0.74424,-0.06447 -1.49152,-0.07527 -2.23808,-0.0793 -0.56823,-0.0013 -1.13646,0.0026 -1.70469,0.0019 -0.46076,0.01931 -0.92589,-0.02862 -1.38623,-7.1e-5 -0.13288,0.0082 -0.49363,0.06749 -0.62714,0.08829 -0.58586,0.148807 -1.11972,0.426924 -1.70902,0.562591 -0.10321,0.03118 -0.2089,0.05512 -0.30963,0.09355 -0.0943,0.03599 -0.18127,0.08904 -0.27392,0.129117 -0.40391,0.17471 -0.808,0.349158 -1.21169,0.525277 -0.76046,0.388485 -1.53336,0.759408 -2.32842,1.072269 -0.59168,0.287782 -1.22981,0.463614 -1.83369,0.720127 -0.2804,0.119103 -0.6984,0.338974 -0.96709,0.476287 -0.50861,0.200306 -0.98082,0.469572 -1.45993,0.728152 -0.4742,0.255926 -0.9626,0.48514 -1.43906,0.737026 -0.93828,0.493004 -1.92167,0.903192 -2.90272,1.304203 -0.9653,0.412673 -1.95254,0.770943 -2.94093,1.124209 -0.92886,0.365596 -1.89399,0.615979 -2.85813,0.865899 -1.02395,0.25712 -2.08101,0.29178 -3.11669,0.481166 -0.84328,0.172617 -1.70441,0.220983 -2.55231,0.362427 -0.4463,0.07445 -0.89006,0.163504 -1.33581,0.241114 -1.24638,0.17385 -2.48719,0.386131 -3.7391,0.517867 -1.11103,0.04622 -2.21233,0.197228 -3.31965,0.289983 -1.06365,0.08119 -2.13074,0.08772 -3.19682,0.09705 -1.01892,-2.64e-4 -2.03144,0.137912 -3.04757,0.203073 -0.95473,0.05541 -1.91113,0.06233 -2.86714,0.06666 -0.46144,-0.01392 -0.92523,0.02296 -1.3865,0.0033 -0.38145,-0.01624 -0.76378,-0.07997 -1.14194,-0.129312 -0.61182,-0.05596 -1.19762,-0.253881 -1.75399,-0.506471 -0.62745,-0.355385 -1.29818,-0.629565 -1.91441,-1.004271 -0.74583,-0.374994 -1.4306,-0.851942 -2.1097,-1.333799 -0.34932,-0.228946 -0.64666,-0.526304 -0.97664,-0.779335 -0.30358,-0.232794 -0.62856,-0.447596 -0.94128,-0.668428 -0.64155,-0.425127 -1.19355,-0.96349 -1.7932,-1.441145 -0.52311,-0.402291 -0.98285,-0.877081 -1.47539,-1.314958 -0.43387,-0.400103 -0.83226,-0.836809 -1.29841,-1.20137 -0.4913,-0.350552 -0.91998,-0.778754 -1.33737,-1.212334 -0.37261,-0.389689 -0.76782,-0.759619 -1.17081,-1.118547 -0.24373,-0.245907 -0.50617,-0.49562 -0.7989,-0.685128 -0.27941,-0.156784 -0.1435,-0.07278 -0.4078,-0.251881 -0.17595,-0.121116 -0.35752,-0.196392 -0.57172,-0.125026 -0.0624,0.02082 -0.23148,0.125531 -0.17392,0.09358 1.61647,-0.897372 1.96953,-1.255364 1.37859,-0.698916 -0.39567,0.415912 -0.61905,0.9495 -0.8469,1.467543 -0.31409,0.70008 -0.39127,1.461117 -0.44419,2.217143 -0.0439,0.883581 -0.0414,1.768599 -0.0391,2.653008 -0.0612,0.862934 -0.15907,1.722157 -0.21177,2.585892 -0.0566,0.854615 -0.0203,1.712376 -0.0793,2.566324 -0.0444,0.730348 -0.22425,1.439209 -0.35707,2.155764 -0.1455,0.7044 -0.37335,1.386043 -0.6895,2.031439 -0.31646,0.650835 -0.70108,1.262359 -1.05971,1.889506 -0.39454,0.648581 -0.77201,1.307923 -1.17105,1.953834 -0.43831,0.688993 -0.79437,1.422672 -1.24228,2.105996 -0.43144,0.594273 -0.89598,1.163841 -1.32552,1.759659 -0.34151,0.507667 -0.655128,1.027988 -1.052011,1.495594 -0.378936,0.440204 -0.743106,0.891842 -1.115457,1.337601 -0.399184,0.550066 -0.896448,1.012336 -1.41687,1.444969 -0.857237,0.725647 -1.818555,1.207244 -2.803144,1.775799 -0.09091,0.05249 -0.366413,0.205052 -0.275502,0.152564 0.47032,-0.271534 0.942509,-0.539819 1.413764,-0.809728 -1.149057,0.681379 -2.293001,1.408485 -3.577773,1.802974 -0.434504,0.0887 -0.847521,0.255598 -1.282573,0.342736 -0.232548,0.04658 -0.420484,0.06477 -0.655706,0.09331 -0.822844,-0.01537 -1.637689,-0.119682 -2.450092,-0.241393 -0.15934,-0.02069 -0.320217,-0.0318 -0.47802,-0.06206 -0.169212,-0.03245 -0.334098,-0.08439 -0.501357,-0.125738 -0.788677,-0.194968 -1.526876,-0.400412 -2.29313,-0.673832 -1.132732,-0.359921 -2.264775,-0.725094 -3.376573,-1.14585 -1.103058,-0.461978 -2.258851,-0.779862 -3.382912,-1.183246 -1.189387,-0.434948 -2.414511,-0.754123 -3.633682,-1.091081 -1.042498,-0.272415 -2.072986,-0.596164 -3.08923,-0.954431 -1.131226,-0.393753 -2.301255,-0.649317 -3.46267,-0.933275 -1.152004,-0.281456 -2.270049,-0.68103 -3.419922,-0.967907 -1.280986,-0.315389 -2.525795,-0.755362 -3.796663,-1.105725 -1.369666,-0.384641 -2.747981,-0.736786 -4.121131,-1.108332 -1.002065,-0.278553 -2.037776,-0.38131 -3.059348,-0.559692 -0.521544,-0.109699 -1.055791,-0.114382 -1.583087,-0.170651 -0.134141,-0.01431 -0.575889,-0.08983 -0.715417,-0.11308 -0.579067,-0.107318 -1.16568,-0.153056 -1.753283,-0.175951 -0.08958,-0.0021 -0.179501,0.0016 -0.268748,-0.0066 -0.0605,-0.0055 -0.559998,-0.08592 -0.615738,-0.09444 -0.333264,-0.05095 -0.662781,-0.08804 -0.9935,-0.155053 -0.769257,-0.116327 -1.521725,-0.315876 -2.290146,-0.436449 -0.343831,-0.06534 -0.696397,-0.05646 -1.042524,-0.09609 -0.305504,-0.03498 -0.610696,-0.106982 -0.913765,-0.159012 -0.537737,-0.09151 -1.083022,-0.114456 -1.627241,-0.127807 -0.636532,-0.01024 -1.273177,-0.0096 -1.90977,-0.0086 -0.669518,5.3e-4 -1.339033,0.0013 -2.008548,0.0026 -0.391718,-0.0182 -0.78741,0.02588 -1.178776,2.65e-4 -0.121333,-0.0079 -0.517803,-0.06951 -0.63889,-0.08755 -0.574519,-0.09713 -1.155067,-0.141599 -1.736616,-0.165134 -0.536652,-0.01662 -1.07364,-0.01535 -1.610487,-0.01524 -0.533996,5.29e-4 -1.067994,0.0013 -1.601992,0.0016 -0.534468,2.65e-4 -1.068937,2.65e-4 -1.603409,2.65e-4 -0.534543,8e-6 -1.069086,0 -1.603629,-5e-6 -0.688394,-0.06403 -1.344909,-0.24796 -2.004678,-0.443148 -0.596194,-0.12073 -1.164862,-0.339582 -1.748796,-0.503854 -0.962232,-0.270693 0.0391,0.04115 -0.857367,-0.245864 -0.700715,-0.206045 -1.385234,-0.462608 -2.083,-0.677791 -0.596966,-0.233247 -1.206038,-0.444903 -1.823437,-0.618697 -0.649143,-0.197432 -1.278641,-0.44006 -1.943931,-0.579099 -0.645854,-0.187957 -1.269054,-0.4466 -1.90887,-0.656137 -0.600887,-0.267848 -1.229885,-0.514956 -1.806138,-0.832525 -0.19407,-0.07845 -0.363357,-0.203001 -0.548663,-0.297611 -0.09675,-0.0494 -0.201941,-0.08171 -0.296726,-0.134797 C 11.7887,75.645321 11.699119,75.570796 11.601489,75.509098 11.40195,75.382995 11.197262,75.265197 10.996964,75.140303 10.270126,74.688397 9.5365349,74.250123 8.7770355,73.854656 8.0110419,73.408968 7.2087226,73.032018 6.4605984,72.555795 5.7641386,72.168228 5.1926103,71.614267 4.5631189,71.136102 4.0257446,70.694422 3.5424644,70.192222 3.0539859,69.698335 2.5750476,69.217314 2.125527,68.711465 1.641143,68.235594 1.217648,67.772541 0.84699262,67.25812 0.53922236,66.711766 0.19955146,66.141557 -0.01238199,65.51033 -0.27758646,64.904942 -0.50048913,64.34832 -0.79052628,63.822309 -1.0114577,63.265121 -1.2899178,62.714745 -1.4141232,62.125203 -1.488406,61.518466 c -0.058926,-0.581202 -0.0621,-1.165926 -0.064488,-1.749494 -0.027692,-0.49458 0.030636,-0.979472 0.1778885,-1.451459 0.1484281,-0.398309 0.40474018,-0.747041 0.64493765,-1.094626 0.70958467,-0.83071 1.76643375,-1.213985 2.71349115,-1.722462 0.2575199,-0.154868 0.5574692,-0.163644 0.8392418,-0.233886 0.1371293,-0.03418 0.2669566,-0.09294 0.4013486,-0.13666 0.2869535,-0.04767 0.5488164,-0.148722 0.8196201,-0.249356 0,0 -1.562237,1.220599 -1.562237,1.220599 v 0 c -0.2708722,0.09665 -0.5476131,0.165137 -0.8242861,0.242612 -0.4096651,0.127344 -0.84281118,0.182301 -1.22256745,0.394624 -0.73325491,0.333454 -0.12358639,0.06425 1.31654435,-0.802648 0.058933,-0.03547 -0.1256176,0.05702 -0.1840943,0.09324 -0.1910981,0.118375 -0.1481682,0.12265 -0.3142362,0.274534 -0.052194,0.04774 -0.1092041,0.08993 -0.1638061,0.134888 -0.26595949,0.3303 -0.015922,0.0019 -0.2520196,0.369051 -0.1047365,0.162846 -0.24168195,0.317077 -0.33597657,0.485881 -0.0330513,0.05917 -0.0524168,0.125 -0.0786251,0.1875 -0.19136283,0.43576 -0.23079059,0.919477 -0.2153246,1.390922 4.191e-4,0.577361 -3.3311e-4,1.155766 0.0505694,1.731391 0.0656699,0.591442 0.18139463,1.165696 0.45527711,1.700765 0.21511479,0.556872 0.50862216,1.078556 0.72770286,1.634059 0.2637982,0.598837 0.4659377,1.227217 0.8048055,1.790515 0.3020563,0.528555 0.6633538,1.027332 1.0755108,1.475846 0.4843434,0.476604 0.9267947,0.989999 1.4103898,1.467194 0.4835736,0.486608 0.9629619,0.98044 1.495012,1.414991 0.6236205,0.481172 1.1832444,1.024829 1.8835846,1.407666 0.745537,0.468063 1.5397993,0.849333 2.3020088,1.288819 0.763996,0.398934 1.50294,0.841463 2.23764,1.2914 0.567541,0.349059 1.13704,0.686922 1.73514,0.981382 0.577312,0.303069 1.182451,0.558731 1.785032,0.80563 0.632482,0.212987 1.251697,0.469257 1.897017,0.639498 0.664973,0.153945 1.299539,0.399216 1.955046,0.587573 0.614337,0.18606 1.222999,0.394618 1.822275,0.624306 0.694033,0.222141 1.378714,0.472807 2.076591,0.682828 0.861231,0.270931 1.731559,0.517099 2.605137,0.745247 0.649589,0.189238 1.305168,0.352888 1.9842,0.388794 0.53454,3e-6 1.069083,1.4e-5 1.603624,-8e-6 0.534447,-3.4e-5 1.068895,-8.2e-5 1.603343,-5.29e-4 0.534045,-5.29e-4 1.068088,-0.0013 1.602137,-0.0013 0.538405,5.3e-4 1.077044,5.3e-4 1.61508,0.02312 0.584197,0.0306 1.166111,0.0871 1.743606,0.182647 0.599136,0.07864 1.198669,0.06998 1.802181,0.06447 0.668562,5.29e-4 1.337119,5.29e-4 2.005679,-5.3e-4 0.63995,-8.2e-5 1.280046,-0.0054 1.919883,0.0086 0.549587,0.01884 1.099492,0.05237 1.641274,0.152508 0.646869,0.114398 1.295468,0.184968 1.947981,0.258562 0.767929,0.131537 1.523754,0.325337 2.295231,0.438465 0.617324,0.106989 1.242455,0.200914 1.868554,0.228774 0.590465,0.03065 1.178589,0.08955 1.760175,0.199345 0.76177,0.122648 1.533628,0.149916 2.293149,0.290558 1.01976,0.182972 2.053878,0.294764 3.051707,0.586226 1.370285,0.372243 2.741591,0.740564 4.110799,1.116754 1.272903,0.354772 2.526734,0.776626 3.81109,1.091057 1.144381,0.299344 2.262873,0.689956 3.413099,0.969909 1.168484,0.283083 2.34393,0.546 3.480691,0.943698 1.014468,0.349477 2.040041,0.670321 3.076618,0.94757 1.221753,0.337701 2.445845,0.670706 3.638161,1.104371 1.131054,0.392568 2.285129,0.723437 3.392892,1.181325 1.111358,0.415708 2.23855,0.787442 3.369627,1.145643 1.059374,0.369075 2.149057,0.677188 3.263422,0.822116 0.803634,0.115263 1.615905,0.219697 2.429377,0.188844 0.652629,-0.09573 1.281502,-0.278085 1.914033,-0.462354 0.345329,-0.118473 0.340805,-0.108556 0.676362,-0.257477 0.677204,-0.30054 2.378702,-1.237633 -0.490982,0.369485 0.652934,-0.379457 1.305166,-0.760118 1.958795,-1.138372 0.09063,-0.05244 0.364088,-0.20697 0.273945,-0.153704 -0.467072,0.275992 -0.932209,0.555447 -1.404779,0.821912 -0.09888,0.05576 0.191074,-0.122822 0.283022,-0.189391 0.193376,-0.140007 0.370729,-0.301342 0.567891,-0.436423 0.527947,-0.407881 1.029314,-0.861531 1.424564,-1.402022 0.172538,-0.221376 0.372013,-0.41639 0.544352,-0.637333 0.186727,-0.239387 0.359076,-0.489728 0.569266,-0.710946 0.423114,-0.443638 0.730486,-0.965176 1.064755,-1.475634 0.417351,-0.606163 0.891223,-1.171313 1.334289,-1.75844 0.461413,-0.674081 0.816463,-1.403858 1.241763,-2.099579 0.40819,-0.637784 0.76849,-1.305023 1.17432,-1.9444 0.34733,-0.632703 0.74933,-1.233688 1.06433,-1.884674 0.0615,-0.111792 0.13138,-0.21934 0.1844,-0.335373 0.0526,-0.115012 0.087,-0.237482 0.13147,-0.355843 0.15839,-0.421259 0.29474,-0.8441 0.39182,-1.284214 0.12975,-0.713972 0.32302,-1.415819 0.37484,-2.14241 0.079,-0.851694 0.022,-1.709209 0.082,-2.562762 0.048,-0.860883 0.14221,-1.717067 0.21733,-2.575761 10e-4,-0.888281 -0.004,-1.77713 0.0349,-2.664757 0.0429,-0.771167 0.10344,-1.55131 0.40389,-2.272813 0.22377,-0.529592 0.43853,-1.07942 0.81072,-1.524926 0.59086,-0.728776 0.19459,-0.283599 2.01187,-1.285033 0.10892,-0.06002 0.33175,-0.04574 0.44231,-0.01947 0.1701,0.04043 0.26141,0.112901 0.40695,0.202698 0.43275,0.285776 0.86806,0.573238 1.21833,0.96203 0.40608,0.362363 0.80183,0.738748 1.17769,1.131845 0.41265,0.427336 0.8352,0.848265 1.32253,1.191289 0.46156,0.375383 0.86702,0.808204 1.30272,1.211466 0.48825,0.437124 0.94467,0.910315 1.46554,1.309833 0.58952,0.483677 1.14702,1.008356 1.78437,1.43174 0.6546,0.463405 1.28268,0.956239 1.91417,1.450041 0.67774,0.476549 1.3632,0.94325 2.10355,1.319075 0.62011,0.357471 1.27919,0.640964 1.91052,0.978098 0.54986,0.231773 1.11984,0.411914 1.71778,0.463775 0.8313,0.109249 1.66168,0.144214 2.50049,0.113163 0.95394,-0.0072 1.9084,-0.01738 2.86083,-0.0767 1.01589,-0.0704 2.02978,-0.198999 3.04937,-0.190357 1.06386,-0.0088 2.1287,-0.02477 3.18967,-0.110504 1.10436,-0.09764 2.20534,-0.228618 3.31271,-0.290078 1.24514,-0.137737 2.48205,-0.340019 3.72139,-0.520708 0.4477,-0.07946 0.89398,-0.167434 1.34306,-0.238723 0.84989,-0.134922 1.71104,-0.195339 2.55464,-0.372036 1.03754,-0.175181 2.095,-0.226086 3.11516,-0.499258 0.96189,-0.247391 1.91742,-0.519107 2.84476,-0.878377 0.98602,-0.35669 1.97129,-0.716457 2.93484,-1.130824 0.97737,-0.406657 1.9584,-0.815493 2.89112,-1.317718 0.96065,-0.498361 1.91461,-1.010634 2.89883,-1.461084 0.38792,-0.192556 0.58562,-0.299477 0.98413,-0.463148 0.60766,-0.249568 1.2362,-0.44936 1.83312,-0.726242 0.79169,-0.331829 1.5662,-0.70272 2.33502,-1.083998 0.59721,-0.2614 1.18682,-0.55549 1.81804,-0.725984 0.57972,-0.166569 1.12406,-0.44105 1.72209,-0.544987 0.67482,-0.0874 1.35156,-0.06442 2.0309,-0.06688 0.56825,-0.0028 1.13654,-0.0038 1.70479,7.94e-4 0.74714,0.0099 1.49479,0.0303 2.23897,0.102119 0.90455,0.102089 1.79663,0.275037 2.69771,0.400579 0.93157,0.128497 1.86991,0.179797 2.80329,0.294611 0.80424,0.07329 1.61649,0.07443 2.41203,0.229608 0.7432,0.125066 1.49475,0.182877 2.23501,0.327361 0.97335,0.171138 1.96026,0.281514 2.95018,0.25845 1.10508,-0.0036 2.21111,-0.01093 3.31436,-0.08065 0.89983,-0.07091 1.79101,-0.196956 2.68427,-0.323942 0.6658,-0.112197 1.32106,-0.279324 1.96475,-0.48291 0.71656,-0.252182 1.43635,-0.495152 2.13348,-0.79874 0.29992,-0.132739 0.58249,-0.281051 0.86898,-0.440372 0.0802,-0.04461 0.32048,-0.179086 0.24142,-0.132454 -0.96236,0.567645 -3.43949,1.993893 0.4629,-0.258781 -0.48628,0.28266 -1.94947,1.122971 -1.45882,0.847979 0.0824,-0.04621 4.28318,-2.476679 0.52307,-0.283866 -0.0919,0.0536 0.18389,-0.107373 0.27239,-0.166439 0.0886,-0.05913 0.17317,-0.124105 0.2585,-0.187862 0.0804,-0.06008 0.15911,-0.122406 0.23866,-0.183613 0.53501,-0.335769 1.0661,-0.698777 1.51555,-1.144399 0.4548,-0.373333 0.89874,-0.767382 1.27374,-1.222793 0.2485,-0.381746 0.55967,-0.730163 0.73608,-1.153621 0.2053,-0.434419 0.32077,-0.909145 0.48874,-1.359082 0.0928,-0.261088 0.13813,-0.525439 0.21126,-0.792462 0.0529,-0.193331 0.12163,-0.38223 0.17152,-0.576373 0.0263,-0.102344 0.0444,-0.206629 0.0665,-0.309941 0.16107,-0.645922 0.37057,-1.292487 0.31963,-1.967577 -0.0237,-0.394163 -0.0108,-0.881462 -0.39311,-1.106768 -0.54965,-0.150021 -1.13254,-0.0084 -1.69051,0.02688 -0.65166,0.08703 -1.30029,0.192884 -1.96102,0.150554 -0.76485,0.006 -1.5304,0.01632 -2.29315,0.07863 -0.81223,0.07626 -1.61808,0.220874 -2.43505,0.239429 -0.90248,0.05177 -1.7996,0.155337 -2.70113,0.216614 -0.85868,-2.3e-5 -1.71748,2.36e-4 -2.57594,-0.02164 -0.89374,-0.02923 -1.7878,-0.07118 -2.6761,-0.179141 -0.66635,-0.0712 -1.33206,-0.07561 -2.00186,-0.06441 -0.70945,-0.0013 -1.41891,-0.0034 -2.12837,-0.0032 -0.91294,-0.0024 -1.82589,-0.0028 -2.73884,-0.0016 -0.91033,7.93e-4 -1.82066,8.7e-5 -2.73099,-0.0011 -1.02697,-1.48e-4 -2.05394,-0.0026 -3.08091,-0.0019 -1.01212,-2.56e-4 -2.02425,-0.0011 -3.03638,0.0021 -0.85518,0.0045 -1.71074,0.009 -2.56496,0.05437 -0.85985,0.05269 -1.71459,0.153236 -2.57344,0.215604 -0.78424,7.94e-4 -1.56848,5.29e-4 -2.35272,-0.0011 -0.95562,-0.0019 -1.91125,-0.0029 -2.86688,-0.0021 -1.03178,-0.0019 -2.06356,-9e-5 -3.09535,-2.04e-4 -1.03486,1.75e-4 -2.06972,-0.0019 -3.10458,-2.56e-4 -0.98893,0.0021 -1.97786,-7.94e-4 -2.96679,0.0011 -0.9772,2.59e-4 -1.95439,-0.0013 -2.93158,-5.29e-4 -0.95654,-5.29e-4 -1.91308,0.0016 -2.86962,7.94e-4 -0.99452,-5.3e-4 -1.98905,-0.0011 -2.98356,-0.0031 -1.13586,-5.29e-4 -2.27171,-2.65e-4 -3.40757,0.0011 -1.02553,2.33e-4 -2.05106,5.29e-4 -3.07659,0.0024 -0.78169,0.0016 -1.56337,0.0039 -2.34506,0.0038 -0.76019,-0.0016 -1.52038,-0.0016 -2.28058,-0.0039 -0.99606,-0.0013 -1.99214,-7.94e-4 -2.9882,0.0019 -0.97889,-5.29e-4 -1.95785,-0.0026 -2.93659,-0.02222 -1.04272,-0.02582 -2.08538,-0.06882 -3.12314,-0.179162 -0.92501,-0.08538 -1.85155,-0.09028 -2.77845,-0.147196 -1.15946,-0.08122 -2.31635,-0.208576 -3.4787,-0.239178 -0.89549,-0.04407 -1.78389,-0.140303 -2.67626,-0.223068 -0.87071,-0.01958 -1.7462,-0.04099 -2.60517,-0.198506 -0.65135,-0.129326 -1.29376,-0.298844 -1.93576,-0.467818 -0.69,-0.158755 -1.35389,-0.406283 -2.03017,-0.613288 -0.30331,-0.108947 -0.60298,-0.228531 -0.90969,-0.327491 -0.67382,-0.217405 -1.36742,-0.373771 -2.03567,-0.610203 -0.75179,-0.255519 -1.50684,-0.501306 -2.2576,-0.759997 -0.63104,-0.19535 -1.25495,-0.410051 -1.84257,-0.715613 -0.64296,-0.319932 -1.2616,-0.680009 -1.89479,-1.018665 -0.61168,-0.35692 -1.208865,-0.735684 -1.813777,-1.103024 -0.612082,-0.332684 -1.166566,-0.755557 -1.768451,-1.105982 -0.457827,-0.298029 -0.857912,-0.674753 -1.322933,-0.96235 -0.483163,-0.310383 -0.9321,-0.670005 -1.405297,-0.99495 -0.546214,-0.38816 -1.035508,-0.851831 -1.576266,-1.248812 -0.385426,-0.329086 -0.185123,-0.162798 -0.601686,-0.497927 -0.388477,-0.32961 -0.746218,-0.694809 -1.160674,-0.993958 -0.485542,-0.317 -1.053812,-0.606798 -1.649206,-0.534739 -0.4777,0.112416 -0.946743,0.258916 -1.427732,0.357812 -0.781719,0.258929 -2.769359,1.237536 0.29958,-0.379201 -0.22978,0.117867 -0.347091,0.224981 -0.541406,0.389612 -0.199141,0.16872 -0.405519,0.321766 -0.54768,0.548619 -0.254383,0.219216 -0.392528,0.413737 -0.59309,0.680816 -0.228086,0.303731 -0.481356,0.589713 -0.674825,0.918765 -0.533323,0.623152 -1.048088,1.267516 -1.491263,1.958147 -0.465188,0.700887 -0.900694,1.418831 -1.367869,2.117992 -0.216892,0.331729 -0.258649,0.408416 -0.495948,0.721474 -0.244624,0.322723 -0.512938,0.631751 -0.749509,0.960316 -0.07085,0.0984 -0.130959,0.204102 -0.196438,0.306152 -0.389855,0.562679 -0.797031,1.112329 -1.171501,1.685732 -0.463394,0.583401 -0.942848,1.153562 -1.445238,1.704287 -0.476301,0.455797 -0.930744,0.927936 -1.344277,1.442132 -0.430683,0.610235 -0.896911,1.196933 -1.336871,1.800387 -0.403312,0.53087 -0.805746,1.071308 -1.324414,1.497716 -0.480134,0.41225 -0.944247,0.839494 -1.396074,1.282427 -0.531968,0.471808 0.07946,-0.05869 -0.502922,0.408104 -0.35096,0.281303 -0.681049,0.590622 -1.063144,0.831991 -0.276823,0.189274 -0.535636,0.399896 -0.812104,0.589526 -0.556104,0.381433 0.0019,-0.01442 -0.566571,0.362614 -0.09993,0.06628 -0.196276,0.137813 -0.294415,0.206719 -1.225881,0.789717 -2.469994,1.547428 -3.747632,2.253427 0.444677,-0.259453 1.781132,-1.033629 1.334037,-0.778359 -1.077974,0.615473 -2.098387,1.336701 -3.28867,1.712465 -0.655011,0.202832 -1.330302,0.317344 -2.015784,0.35111 -0.592355,-0.0019 -1.186879,-0.0013 -1.774944,-0.08293 -0.689144,-0.111374 -1.36117,-0.296807 -1.983706,-0.621007 -0.566449,-0.249671 -1.123862,-0.516723 -1.669494,-0.809135 -0.551598,-0.293225 -1.120222,-0.560128 -1.635646,-0.916795 -0.536366,-0.405788 -1.082575,-0.798631 -1.587741,-1.244335 -0.485225,-0.423209 -0.993841,-0.820002 -1.437725,-1.287986 -0.50107,-0.53508 -1.003165,-1.068237 -1.518351,-1.590302 -0.514792,-0.55525 -1.019244,-1.123969 -1.426662,-1.764985 -0.355367,-0.564793 -0.71601,-1.125321 -1.071571,-1.689783 -0.307607,-0.4513 -0.542263,-0.937072 -0.790972,-1.422149 -0.306985,-0.47948 -0.606409,-0.964342 -0.940956,-1.425434 -0.340902,-0.51172 -0.68277,-1.024631 -0.986242,-1.55892 -0.299355,-0.569111 -0.643755,-1.10948 -0.976574,-1.658723 -0.240475,-0.4581 -0.500658,-0.906063 -0.739969,-1.364359 -0.143041,-0.221252 -0.267993,-0.455832 -0.414398,-0.674475 -0.128807,-0.192363 -0.20347,-0.260763 -0.344236,-0.449811 -0.0612,-0.08218 -0.117758,-0.167719 -0.176639,-0.251579 -0.356695,-0.458393 -0.666649,-0.95269 -1.070308,-1.372983 -0.419216,-0.433549 -0.803336,-0.90487 -1.33273,-1.214247 -0.449948,-0.266317 -0.920348,-0.509688 -1.455576,-0.524629 -0.567812,-0.0011 -1.135901,-0.0039 -1.703369,0.01934 -0.615791,0.03338 -1.233429,0.08608 -1.8215,0.28634 -0.601655,0.193481 -1.213906,0.360563 -1.787742,0.630279 -0.549892,0.276829 -1.094483,0.564306 -1.634117,0.860611 -0.193979,0.103753 -0.38604,0.21109 -0.580771,0.313422 -0.09974,0.05241 -0.397507,0.211844 -0.301495,0.152871 2.657959,-1.632558 1.312852,-0.78509 0.741889,-0.408215 -0.411068,0.294669 -0.198104,0.150765 -0.639707,0.430499 -0.109054,0.07721 -0.207262,0.168878 -0.314905,0.248046 -0.29183,0.214633 -0.603991,0.403472 -0.870696,0.651606 -0.18756,0.141499 -0.315005,0.243975 -0.514104,0.369033 -0.09014,0.05662 -0.188677,0.0996 -0.276563,0.159652 -0.23427,0.160081 -0.43438,0.372284 -0.675281,0.52447 -0.433268,0.38408 -0.920459,0.69369 -1.389544,1.032275 -0.458599,0.392723 -0.89926,0.805907 -1.425117,1.110802 -0.231854,0.179946 -0.47524,0.34325 -0.708106,0.521198 -0.239743,0.183203 -0.458899,0.395523 -0.730039,0.535456 -0.499576,0.428987 0.02779,-0.01167 -0.522706,0.409331 -0.373081,0.285322 -0.730484,0.593434 -1.143026,0.823714 -0.501243,0.303231 -0.987702,0.63871 -1.438848,1.01237 -0.550895,0.412827 0.151649,-0.102454 -0.465387,0.311468 -0.414514,0.278066 -0.779186,0.628573 -1.225769,0.861343 -0.620477,0.448003 -1.239094,0.898043 -1.853099,1.354608 -1.180886,0.759376 -2.397297,1.467326 -3.645942,2.10952 -0.764242,0.34194 -1.540718,0.662221 -2.329223,0.94311 -0.627393,0.212995 -1.227686,0.282747 -1.890817,0.236652 -0.7749633,-0.0113 -1.5507097,-0.03007 -2.3223374,-0.10854 C 7.0837718,56.704557 6.2648118,56.592652 5.4424357,56.51225 5.0664779,56.442747 4.6961014,56.367804 4.3336442,56.242738 4.036855,56.140331 3.9668177,56.091555 3.6800657,55.975453 3.5682004,55.930162 3.4545812,55.889329 3.3418388,55.846265 2.604362,55.567479 1.8454202,55.35328 1.1085238,55.073086 c 0,0 1.6410965,-1.113467 1.6410965,-1.113467 z"
       inkscape:connector-curvature="0" />
    <path
       style="fill:#800000;stroke-width:0.50507629"
       d="m 334.26705,344.52912 c -4.2701,-0.75483 -14.62477,-4.026 -30.05203,-9.49382 -4.44468,-1.57531 -12.17234,-4.0661 -17.1726,-5.53511 -20.48673,-6.01871 -23.66688,-6.9331 -33.58757,-9.65753 -5.69473,-1.56389 -13.76333,-3.82945 -17.93021,-5.03459 -19.6463,-5.68204 -25.84515,-7.02761 -39.39595,-8.55157 -7.19054,-0.80866 -15.79928,-2.08056 -24.74873,-3.65651 -3.96581,-0.69836 -17.90886,-1.27485 -50.76017,-2.09873 l -16.41498,-0.41167 -6.324208,-1.81428 C 94.402288,297.27746 87.12919,294.9836 81.718161,293.17786 76.307138,291.37211 69.901882,289.30645 67.484264,288.58751 61.402756,286.77902 55.842751,284.3231 49.497819,280.6427 46.529424,278.92087 40.92268,275.72752 37.038387,273.54636 27.966894,268.45241 24.241317,265.56257 16.46957,257.59162 9.7174115,250.6664 9.2629948,249.95107 3.9867419,237.94159 c -3.48977507,-7.94322 -4.10476732,-17.375 -1.4304727,-21.93834 1.1522217,-1.96611 1.6323641,-2.31507 4.0017614,-2.90833 1.4808447,-0.37078 3.1042331,-1.0346 3.6075304,-1.47515 0.841237,-0.73636 1.228457,-0.68972 4.798224,0.57784 4.733118,1.68065 14.080138,2.8643 22.667129,2.87042 5.351265,0.004 6.640267,-0.16728 9.848987,-1.30728 4.457161,-1.58355 10.866937,-4.74195 16.327544,-8.04535 5.628423,-3.40491 34.275511,-23.78873 39.376935,-28.01862 4.92419,-4.08294 17.49476,-13.01336 21.47602,-15.25703 2.36123,-1.3307 6.422,-3.10918 9.02392,-3.95218 4.06409,-1.31673 5.59439,-1.54814 10.85914,-1.64209 5.94545,-0.1061 6.2091,-0.0647 8.83319,1.3888 4.51987,2.5035 9.59931,8.91991 16.20683,20.47265 2.30379,4.02798 5.38539,9.14188 6.84802,11.36421 1.46262,2.22234 3.86153,6.08617 5.33092,8.5863 5.12241,8.71568 8.10042,12.79393 13.44075,18.40651 7.89043,8.29268 14.59329,13.45837 22.59194,17.41091 9.06353,4.47875 11.08526,4.99146 18.664,4.73317 7.55828,-0.25758 9.69263,-0.97132 18.74804,-6.26941 17.34077,-10.14563 27.63954,-18.49008 35.62067,-28.86118 2.50781,-3.25879 6.47051,-8.04803 8.806,-10.64276 4.45056,-4.94457 8.39458,-10.29816 17.17558,-23.31405 5.50358,-8.15784 10.92126,-15.39422 13.36352,-17.84959 0.96691,-0.9721 2.60927,-1.75172 5.09426,-2.41819 5.42705,-1.45555 6.12065,-1.15718 15.41485,6.63112 6.35507,5.32538 16.87316,12.72973 25.48948,17.94365 11.83,7.15857 12.65212,7.50123 36.12983,15.05874 11.20981,3.60846 17.06267,4.92869 23.99112,5.41168 3.4724,0.24207 9.60908,0.67505 13.63706,0.96219 4.02798,0.28713 11.41472,0.80668 16.41498,1.15456 8.87254,0.61727 114.79272,0.77837 211.37442,0.32149 19.30654,-0.0913 40.78491,0.0177 47.7297,0.24227 8.06547,0.26082 14.7252,0.21889 18.43529,-0.11607 3.19461,-0.28842 12.03374,-0.9145 19.64257,-1.39129 15.99233,-1.00213 15.20769,-1.20126 15.20769,3.85938 0,3.36601 -2.88277,14.32967 -4.8753,18.54149 -2.35517,4.97844 -11.1435,12.65533 -18.10567,15.81587 -8.97728,4.07531 -18.2878,5.90924 -32.32488,6.36712 -8.32265,0.27148 -10.03097,0.1665 -20.20305,-1.24159 -6.11142,-0.84598 -14.01521,-1.79347 -17.56393,-2.10553 -3.54876,-0.31206 -9.45816,-1.00962 -13.13198,-1.55013 -4.88682,-0.71897 -9.40998,-0.98338 -16.85137,-0.98508 l -10.17168,-0.003 -5.73822,1.98682 c -3.15607,1.09275 -8.35204,3.21336 -11.54665,4.71246 -3.19461,1.4991 -7.74029,3.48805 -10.10152,4.41989 -2.36123,0.93183 -8.18355,3.68292 -12.93849,6.11354 -10.03309,5.12868 -25.29811,11.33431 -33.27599,13.52759 -3.05571,0.84007 -10.44245,2.24148 -16.41498,3.11424 -5.97253,0.87277 -14.38205,2.11468 -18.68782,2.75981 -10.55433,1.58135 -44.15452,3.82131 -56.56854,3.77113 -8.72748,-0.0353 -11.10614,-0.60278 -18.94036,-4.51887 -10.90705,-5.45189 -23.98576,-15.66946 -41.16372,-32.15843 -5.67203,-5.44453 -8.79656,-7.7686 -10.44425,-7.7686 -1.59173,0 -7.24788,2.84317 -8.3884,4.21659 -1.29811,1.56319 -3.68384,6.30469 -4.35879,8.66286 -0.31804,1.11117 -0.80733,7.02056 -1.08732,13.13198 -1.528,33.35227 -1.29277,32.33538 -11.45016,49.49748 -11.02813,18.6333 -22.51578,32.89046 -29.23823,36.28715 -5.40005,2.72851 -12.78699,3.4367 -20.89582,2.00328 z"
       id="path37"
       inkscape:connector-curvature="0"
       transform="scale(0.26458333)" />
    <path
       style="fill:#800000;stroke-width:0.06313454"
       d="m 337.38116,350.09608 c -1.58226,-0.0819 -4.07781,-0.3414 -6.25032,-0.65004 -0.7292,-0.10359 -1.77047,-0.24512 -2.31392,-0.31451 -1.00025,-0.12772 -2.79326,-0.55369 -5.862,-1.39265 -1.7892,-0.48914 -2.64262,-0.75219 -6.02935,-1.85835 -7.46019,-2.43663 -10.25592,-3.40247 -13.25825,-4.58033 -1.97239,-0.7738 -3.16383,-1.19243 -7.13376,-2.50653 -1.73644,-0.57478 -4.02369,-1.35032 -5.08277,-1.72342 -3.61134,-1.27222 -6.04175,-1.99714 -13.73176,-4.0958 -3.85642,-1.05244 -5.61361,-1.58932 -9.94369,-3.03813 -5.03838,-1.6858 -5.78049,-1.892 -14.20527,-3.94718 -1.89102,-0.46131 -3.63669,-0.94933 -7.07107,-1.97678 -3.35797,-1.0046 -3.85922,-1.14634 -6.40815,-1.81207 -1.11117,-0.29022 -2.46067,-0.65224 -2.99889,-0.80449 l -0.97859,-0.27683 -0.0164,-2.95086 c -0.0155,-2.79212 -0.0104,-2.94897 0.0947,-2.91571 2.04384,0.64654 6.71267,1.98641 9.17092,2.6319 2.44002,0.64071 3.3801,0.90602 6.34502,1.79066 4.95865,1.47952 5.77663,1.70233 9.88055,2.69143 5.469,1.31809 7.30688,1.83651 11.61676,3.27681 4.77785,1.59669 6.42881,2.09548 12.4375,3.75762 5.28859,1.46295 8.16562,2.33504 11.22417,3.40228 0.92776,0.32374 3.37727,1.14934 5.44335,1.83468 3.84896,1.27674 6.01278,2.0378 7.65598,2.69276 2.35414,0.93834 6.52769,2.37506 13.45876,4.6331 4.1526,1.35286 5.85917,1.8388 8.4269,2.39953 2.68155,0.58558 7.32619,1.19828 10.32782,1.3624 2.34449,0.1282 3.21327,0.0328 6.06091,-0.66578 2.81571,-0.69071 5.00897,-1.38496 6.43972,-2.03841 1.86815,-0.85321 2.51884,-1.20987 3.22506,-1.76774 0.38482,-0.30399 1.04137,-0.81524 1.459,-1.13612 1.91497,-1.47134 3.50981,-3.01219 4.83792,-4.67413 0.47702,-0.59691 1.15268,-1.40541 1.50145,-1.79665 0.34878,-0.39124 0.89342,-1.05227 1.21031,-1.46896 0.79603,-1.04674 1.46756,-1.8714 1.97976,-2.4312 0.99087,-1.08295 1.70103,-2.0457 3.10721,-4.21234 1.1888,-1.8317 1.80199,-2.67468 3.97509,-5.46471 2.32133,-2.98035 2.54796,-3.32438 4.73582,-7.18909 0.6555,-1.1579 1.47075,-2.55984 1.81169,-3.11542 0.34092,-0.55558 1.32982,-2.2034 2.19754,-3.6618 0.86773,-1.45841 1.7154,-2.87168 1.88372,-3.1406 0.16832,-0.26891 0.613,-1.02179 0.98816,-1.67306 0.37517,-0.65127 1.00989,-1.73813 1.4105,-2.41525 0.4006,-0.67712 0.97842,-1.69989 1.28403,-2.27284 0.30561,-0.57295 0.75088,-1.39966 0.98948,-1.83715 0.58988,-1.08154 1.5769,-3.80955 2.09925,-5.80213 0.27478,-1.04818 1.22947,-5.72536 1.44977,-7.10263 0.27741,-1.73437 0.35317,-2.90475 0.42095,-6.50286 0.0936,-4.97174 0.18547,-6.51232 0.75641,-12.69165 l 0.25097,-2.71639 6.4e-4,-3.50236 c 7.5e-4,-6.6183 0.2364,-9.95188 0.89027,-12.59373 0.43013,-1.73784 1.83097,-5.02375 2.84631,-6.67648 l 0.37815,-0.61556 h 2.5197 c 1.38558,0 2.51944,0.0164 2.51944,0.0364 0,0.02 -0.25198,0.60951 -0.55995,1.31004 -0.62213,1.4151 -0.87572,2.1231 -1.14592,3.19928 -0.34437,1.37159 -0.55129,2.7883 -0.71929,4.9245 -0.13898,1.76723 -0.17349,2.92674 -0.22641,7.60771 l -0.0485,4.29315 -0.28983,3.21986 c -0.42896,4.76557 -0.47631,5.49417 -0.54572,8.39689 -0.16008,6.69475 -0.21053,7.594 -0.54013,9.62802 -0.2158,1.33167 -0.99078,5.24588 -1.26877,6.40815 -0.70383,2.94267 -1.76076,5.61244 -3.41174,8.61787 -0.99841,1.81752 -5.12378,8.8067 -7.43439,12.59534 -0.55062,0.90282 -1.48351,2.49381 -2.07311,3.53553 -2.01699,3.56374 -2.29623,3.99955 -3.98459,6.21875 -2.87748,3.78222 -3.62853,4.81062 -4.72606,6.47129 -1.33051,2.0132 -2.16373,3.14694 -3.25655,4.43108 -1.05001,1.23386 -3.70186,4.44463 -4.08368,4.9444 -0.89365,1.16973 -2.24502,2.59082 -3.67484,3.86448 -2.6552,2.3652 -4.35315,3.55656 -8.33154,5.84577 -0.65322,0.37587 -1.94055,1.12465 -2.86074,1.66395 -4.48364,2.62775 -8.01867,4.25895 -10.50216,4.84611 -0.30716,0.0726 -1.17779,0.31449 -1.93472,0.5375 -2.79719,0.82408 -4.32132,1.04752 -6.40878,0.93952 z"
       id="path39"
       inkscape:connector-curvature="0"
       transform="scale(0.26458333)" />
    <path
       style="fill:#800000;stroke-width:0.06313454"
       d="m 337.38116,350.09766 c -1.92357,-0.11662 -4.07329,-0.34102 -6.56599,-0.6854 -0.8681,-0.11993 -1.90508,-0.26225 -2.30441,-0.31626 -0.93992,-0.12713 -5.39632,-1.25884 -7.60771,-1.93199 -0.34724,-0.1057 -1.93823,-0.61821 -3.53554,-1.1389 -7.18592,-2.3425 -10.26061,-3.38891 -12.4375,-4.23286 -2.9663,-1.14999 -4.09028,-1.55201 -8.17592,-2.92431 -2.41332,-0.81059 -5.31119,-1.79018 -6.43972,-2.17686 -2.60801,-0.89361 -5.1417,-1.65548 -9.47018,-2.84764 -7.69241,-2.11865 -7.92041,-2.18663 -12.81631,-3.82112 -5.07354,-1.69381 -6.75901,-2.16721 -13.54236,-3.80371 -2.6056,-0.6286 -3.91548,-0.98846 -7.60771,-2.09002 -3.54848,-1.05867 -4.36236,-1.28882 -7.00794,-1.98176 -1.12853,-0.29559 -2.43541,-0.64594 -2.90418,-0.77855 l -0.85232,-0.24112 -0.0164,-2.95496 c -0.0155,-2.79545 -0.0104,-2.95315 0.0947,-2.92158 3.6182,1.08648 6.37988,1.88522 8.09763,2.342 4.08884,1.08727 4.2346,1.12851 9.12294,2.58097 3.09444,0.91944 4.24733,1.22776 8.17592,2.18641 6.05542,1.47764 6.99959,1.74526 12.02713,3.40898 4.75334,1.57298 6.23765,2.02134 11.71146,3.53764 5.51905,1.52882 8.07024,2.2996 11.39578,3.44294 1.18062,0.40591 3.79439,1.28514 5.80838,1.95385 3.81793,1.26768 5.39389,1.82573 7.98652,2.82805 2.56768,0.99267 5.90887,2.14251 12.05869,4.1499 5.18833,1.69354 7.15001,2.24789 9.91743,2.80255 4.13501,0.82874 10.25124,1.44691 12.28546,1.24169 2.28459,-0.23047 7.44892,-1.62775 9.72369,-2.63087 1.75274,-0.77291 2.71521,-1.30959 3.61817,-2.01748 0.46877,-0.3675 1.15062,-0.90038 1.51523,-1.18418 1.60474,-1.24911 3.41596,-3.01478 4.51427,-4.40073 0.34397,-0.43405 0.99614,-1.21534 1.44927,-1.7362 0.45314,-0.52086 1.19183,-1.42643 1.64154,-2.01238 0.44971,-0.58595 1.10005,-1.38145 1.44521,-1.76777 1.11482,-1.24779 1.66925,-1.98882 3.10374,-4.14833 1.52024,-2.2886 2.14933,-3.15304 4.45522,-6.12202 2.02208,-2.60357 2.40971,-3.2052 4.92,-7.63621 0.46229,-0.81601 1.21446,-2.09449 1.67149,-2.84105 0.45703,-0.74657 1.3948,-2.30915 2.08395,-3.4724 0.68914,-1.16326 1.42862,-2.39912 1.64328,-2.74636 0.38848,-0.62841 1.95243,-3.29668 3.00567,-5.128 0.62598,-1.0884 1.93196,-3.54475 2.16583,-4.07355 0.28788,-0.65095 1.11845,-3.03911 1.42878,-4.10818 0.26796,-0.92313 0.98056,-4.20033 1.47145,-6.76705 0.44726,-2.3386 0.5708,-4.03542 0.63893,-8.7757 0.0525,-3.65283 0.18527,-5.76194 0.70543,-11.20638 l 0.2262,-2.36754 0.0486,-4.9245 c 0.0267,-2.70847 0.0806,-5.39326 0.11966,-5.96621 0.29767,-4.36479 0.63318,-6.02062 1.77181,-8.74413 0.71659,-1.71405 1.42836,-3.15641 1.97059,-3.99326 l 0.25566,-0.39459 h 2.51797 c 1.38488,0 2.51796,0.0235 2.51796,0.0523 0,0.0288 -0.15907,0.40521 -0.35348,0.83653 -1.06593,2.36482 -1.45623,3.66686 -1.78694,5.96126 -0.33364,2.31469 -0.43501,4.36045 -0.50834,10.25937 l -0.0545,4.38785 -0.28762,3.18829 c -0.46844,5.19263 -0.51131,5.95702 -0.60908,10.85914 -0.10143,5.08554 -0.17559,5.78771 -1.10365,10.44877 -0.55157,2.77018 -0.69823,3.40707 -1.08309,4.70352 -0.70219,2.36544 -1.67319,4.62251 -3.08348,7.16749 -0.96405,1.73974 -4.7743,8.18974 -7.19794,12.18473 -0.54722,0.90201 -1.61998,2.73382 -2.3839,4.07069 -2.1155,3.70213 -1.91182,3.40264 -5.79665,8.52316 -0.69812,0.92019 -1.86754,2.56506 -2.59869,3.65526 -1.4453,2.15505 -2.28255,3.30108 -3.23346,4.42596 -1.00875,1.19333 -3.82904,4.60726 -4.19857,5.08233 -1.94093,2.49533 -5.02387,5.28882 -8.11541,7.35348 -1.00335,0.67008 -1.92845,1.23665 -3.6618,2.24267 -0.7292,0.42322 -2.08805,1.21498 -3.01965,1.75946 -4.54243,2.65484 -7.95391,4.24052 -10.4898,4.87573 -0.34798,0.0872 -1.2151,0.32567 -1.92694,0.53001 -3.11787,0.89501 -4.46394,1.09465 -6.53443,0.96913 z"
       id="path41"
       inkscape:connector-curvature="0"
       transform="scale(0.26458333)" />
    <path
       style="fill:#800000;stroke-width:0.06313454"
       d="m 336.84452,350.06982 c -1.27915,-0.0836 -3.32427,-0.29988 -5.08233,-0.53741 -0.90283,-0.12198 -2.08186,-0.27827 -2.62008,-0.3473 -1.21324,-0.15563 -1.56975,-0.23301 -4.14875,-0.90054 -2.86904,-0.7426 -4.01477,-1.08116 -7.49958,-2.21604 -6.99961,-2.27955 -11.19184,-3.71502 -13.22668,-4.52896 -1.72077,-0.68831 -3.68096,-1.38457 -7.60771,-2.70223 -2.25706,-0.75738 -4.94186,-1.66549 -5.96622,-2.01802 -3.16958,-1.0908 -6.11839,-1.96583 -12.56266,-3.72784 -4.52233,-1.23651 -6.10648,-1.71918 -10.67084,-3.25129 -4.58358,-1.53857 -5.81902,-1.88153 -13.6055,-3.77692 -2.06468,-0.50258 -3.63977,-0.93942 -6.98755,-1.93789 -3.37355,-1.00616 -4.55013,-1.33898 -6.99675,-1.97912 -1.12853,-0.29528 -2.43541,-0.64537 -2.90418,-0.77798 l -0.85232,-0.24112 -0.0164,-2.95496 c -0.0155,-2.79518 -0.0104,-2.95319 0.0947,-2.92241 0.0611,0.0179 0.67932,0.20243 1.3738,0.41009 3.60656,1.07839 5.35804,1.57468 8.27063,2.34351 1.9937,0.52627 3.46237,0.94484 6.76268,1.92738 3.67241,1.09332 5.11195,1.48213 9.02095,2.43648 5.97826,1.45956 6.97679,1.74197 11.80616,3.33901 4.95543,1.63874 6.24603,2.03067 11.33265,3.44157 6.45779,1.79122 8.44911,2.39564 12.84788,3.89965 1.66675,0.5699 3.71231,1.25678 4.54568,1.52643 2.37109,0.76716 5.21457,1.75995 7.00794,2.44677 3.74053,1.43257 6.53913,2.40576 12.96414,4.50814 5.0483,1.6519 6.79902,2.16811 9.16451,2.70221 3.66276,0.82702 9.12507,1.49904 12.2481,1.50689 1.36266,0.003 1.55575,-0.0102 2.36754,-0.16739 1.97032,-0.38142 4.66724,-1.08357 6.57312,-1.71132 1.51398,-0.49866 3.75896,-1.50364 4.6964,-2.10236 0.40593,-0.25925 1.80524,-1.33117 3.0252,-2.31739 1.10738,-0.89523 3.15422,-2.93876 3.95349,-3.94712 0.34405,-0.43405 0.98524,-1.20519 1.42487,-1.71365 0.43964,-0.50845 1.18354,-1.41759 1.65313,-2.0203 0.8575,-1.10059 1.07366,-1.36104 1.92815,-2.32323 0.69832,-0.78632 1.57264,-1.99096 2.8666,-3.94964 1.23644,-1.87158 2.09469,-3.04944 4.10622,-5.63535 2.17451,-2.79543 2.43063,-3.19121 5.03523,-7.78074 0.4631,-0.81601 1.31599,-2.26495 1.89532,-3.21986 3.02548,-4.98691 6.47693,-10.85893 7.45848,-12.68927 1.01274,-1.88849 1.34187,-2.60671 1.8375,-4.00982 0.87861,-2.48729 1.08807,-3.29764 1.90117,-7.35517 0.81983,-4.09109 0.8912,-4.78673 0.98454,-9.59645 0.0935,-4.81895 0.19155,-6.4814 0.70172,-11.90086 l 0.25557,-2.71478 0.0546,-4.95606 c 0.0553,-5.02646 0.0949,-6.06537 0.31477,-8.27063 0.2742,-2.75002 0.66191,-4.2658 1.73342,-6.77694 0.57791,-1.35436 1.24259,-2.69486 1.71465,-3.45798 l 0.34706,-0.56108 h 2.52157 c 1.38685,0 2.52155,0.0235 2.52155,0.0523 0,0.0288 -0.15907,0.40521 -0.35348,0.83653 -1.05564,2.34204 -1.45943,3.68911 -1.78694,5.96126 -0.33099,2.29631 -0.43503,4.41141 -0.50928,10.35407 l -0.0544,4.35628 -0.256,2.80949 c -0.48609,5.3346 -0.53939,6.26085 -0.63763,11.08011 -0.10646,5.2226 -0.17743,5.89146 -1.13415,10.68869 -0.65545,3.28654 -0.97569,4.52137 -1.65698,6.3892 -1.10681,3.03445 -2.2783,5.18582 -8.16914,15.00221 -1.41441,2.35696 -3.16553,5.32181 -3.89135,6.58855 -1.87642,3.27485 -2.09404,3.60833 -4.01233,6.14899 -2.64455,3.50255 -3.165,4.21968 -4.51259,6.218 -1.6701,2.47656 -1.98978,2.89736 -4.38792,5.77584 -1.13265,1.35952 -2.43508,2.94062 -2.89429,3.51357 -1.52754,1.90583 -3.03673,3.41691 -5.20256,5.20906 -2.14182,1.77227 -3.88593,2.88167 -10.66974,6.78686 -3.79198,2.1829 -7.08836,3.67393 -9.43727,4.26871 -0.34798,0.0881 -1.31454,0.35396 -2.14791,0.59077 -3.08893,0.87775 -4.36407,1.04134 -6.8501,0.8788 z"
       id="path43"
       inkscape:connector-curvature="0"
       transform="scale(0.26458333)" />
    <path
       style="fill:#ffdd55;stroke-width:0.26458332"
       id="path45"
       d="m 10.220222,112.45182 c 0.547051,0.46805 1.146711,0.87249 1.743477,1.27402 0.225215,0.16523 0.490338,0.22497 0.747412,0.3138 0.219138,0.0757 0.426534,0.16741 0.649646,0.23346 0.07468,0.03 0.151096,0.056 0.224044,0.0899 0.606514,0.28254 -0.137894,-0.0323 0.473223,0.23985 0.244898,0.10905 0.50331,0.18089 0.753329,0.27717 0.53699,0.17048 1.060762,0.37474 1.615292,0.48197 0.588858,0.19818 1.21118,0.24395 1.811697,0.38489 0.668564,0.15498 1.354346,0.20909 2.037954,0.24504 0.597249,0.0103 1.198492,0.0607 1.792301,-0.0154 0.790639,-0.11955 1.588483,-0.16643 2.386528,-0.19949 0.837811,-0.0274 1.676128,-0.0279 2.514282,-0.0299 0.801651,0.002 1.603304,-2.7e-4 2.404954,5.3e-4 0.651283,-1.1e-4 1.302568,-10e-4 1.953853,-0.002 0.657767,0.0458 1.292746,-0.11193 1.929342,-0.25086 0.834337,-0.14909 1.680773,-0.25531 2.501185,-0.47184 0.606251,-0.16501 1.220386,-0.28953 1.815563,-0.49256 0.787808,-0.2179 1.58519,-0.39411 2.365309,-0.63949 0.903454,-0.29061 1.805286,-0.5842 2.710839,-0.86812 0.710094,-0.17596 1.399992,-0.42112 2.113793,-0.58282 0.8104,-0.16582 0.411488,-0.0779 1.19693,-0.26291 1.113626,-0.23266 2.226744,-0.46681 3.342267,-0.69027 1.139386,-0.16634 2.27789,-0.33685 3.416398,-0.50997 0.866796,-0.14658 1.745919,-0.17309 2.620137,-0.2419 0.310126,-0.0244 0.871987,-0.0905 1.187974,-0.12618 1.04453,-0.0834 2.083662,-0.20455 3.125242,-0.31736 1.067599,-0.0967 2.140913,-0.16467 3.212134,-0.10811 1.146337,0.10832 2.299309,0.12575 3.445193,0.23287 1.21676,0.10909 2.432341,0.20666 3.639481,0.39854 0.208979,0.0444 0.41897,0.0844 0.626938,0.13329 0.915064,0.21534 0.381905,0.12372 1.318025,0.32518 0.708501,0.15248 1.42268,0.28489 2.136595,0.40889 1.642149,0.27113 3.281127,0.55658 4.91518,0.87416 1.778968,0.36225 3.530076,0.84397 5.279906,1.32409 0.925817,0.21829 1.847916,0.45591 2.776696,0.66154 0.311584,0.069 0.626343,0.1231 0.937792,0.19269 0.311782,0.0697 0.621083,0.14999 0.931624,0.22499 0.313436,0.0697 0.626872,0.13939 0.940308,0.20908 1.83097,0.41749 3.6673,0.81189 5.506371,1.19221 1.310693,0.24649 2.617216,0.50581 3.944403,0.64569 0.827751,0.1418 1.659151,0.25046 2.496921,0.30846 0.74774,0.0401 1.49692,0.0394 2.24551,0.04 0.76953,0.001 1.53906,-0.002 2.3086,-0.002 0.13443,1.5e-4 0.26902,0.007 0.4033,5.3e-4 0.28024,-0.0134 0.55844,-0.0548 0.8376,-0.0829 0.4943,-0.0497 0.98761,-0.0884 1.48096,-0.14786 1.15524,-0.14374 2.30199,-0.35133 3.44859,-0.55202 0.6428,-0.1723 1.30444,-0.26503 1.94636,-0.44011 0.30076,-0.082 0.59713,-0.17937 0.89579,-0.26876 0.88293,-0.2334 1.75196,-0.5124 2.62814,-0.76873 1.02231,-0.33164 2.01567,-0.74309 3.01241,-1.14318 0.65039,-0.23679 1.24822,-0.58522 1.85837,-0.905 0.28142,-0.14749 0.56992,-0.2811 0.85278,-0.42579 0.96297,-0.48009 1.9535,-0.892 2.9677,-1.24979 0.91333,-0.32808 1.81686,-0.67981 2.72946,-1.00946 0.96281,-0.2959 1.95042,-0.49879 2.94892,-0.62627 1.19343,-0.19928 2.4001,-0.2921 3.60744,-0.35087 1.17625,-0.0448 2.35367,-0.0443 3.5306,-0.0462 1.11577,0.001 2.23154,-1.5e-4 3.34731,0.002 0.54588,0.0173 1.09348,-0.0194 1.63925,-5.3e-4 0.51887,0.0181 1.03933,0.0829 1.55635,0.12792 1.13215,0.1506 2.26441,0.29229 3.38426,0.51942 1.12066,0.20984 2.22757,0.48417 3.34343,0.71679 0.82354,0.16423 1.612,0.44642 2.40574,0.71255 0.91862,0.37468 1.85928,0.68647 2.79202,1.02332 1.18136,0.49214 2.38875,0.90609 3.60298,1.30788 1.40345,0.50958 2.82531,0.95974 4.25631,1.38455 1.34416,0.44195 2.70896,0.81052 4.07329,1.18329 1.1467,0.31646 2.33426,0.42448 3.51132,0.56664 1.41639,0.15443 2.84228,0.18323 4.26565,0.20447 1.07581,0.0145 2.15173,0.008 3.22757,0.002 0.63588,0.0191 1.2535,-0.15626 1.86897,-0.29045 0.70822,-0.13886 1.40707,-0.3453 2.08087,-0.60392 0.6899,-0.28778 1.39647,-0.53022 2.10097,-0.78057 0.74756,-0.25634 1.50296,-0.48543 2.25517,-0.72695 0.2303,-0.0821 0.67508,-0.41233 0.93463,-0.28108 0.16439,0.0831 0.19697,0.23871 0.26458,0.39114 0.19559,0.77607 0.059,1.59348 -0.0513,2.37371 -0.13045,1.05166 -0.33391,2.09192 -0.47805,3.1415 -0.11387,0.91354 -0.13544,1.83468 -0.14619,2.75412 -0.007,0.86314 -0.002,1.72631 -0.002,2.58946 -1.6e-4,0.89859 0.002,1.79718 0.002,2.69577 0.002,0.71492 0.005,1.42983 0.007,2.14474 -0.0143,0.43699 -0.14488,0.86777 -0.54224,1.10453 -0.63127,0.37613 -1.27335,0.73382 -1.91002,1.10073 -0.52195,0.21679 -1.0918,0.19063 -1.63895,0.27919 -0.86189,0.10031 -1.72034,0.22405 -2.58199,0.32802 -1.04047,0.11752 -2.08758,0.14067 -3.13348,0.15589 -1.11755,0.0223 -2.23586,-0.0213 -3.35204,0.0414 -1.44197,0.11667 -2.88802,0.16203 -4.33385,0.19655 -1.34836,0.0257 -2.69697,0.0319 -4.04553,0.035 -0.89811,0.0578 -1.79163,0.16685 -2.68928,0.23078 -0.57768,0.0383 -1.15675,0.0436 -1.73548,0.0463 -0.67517,0.032 -1.06632,-0.20823 -1.51544,-0.68325 -0.0761,-0.0898 -0.14991,-0.18163 -0.22829,-0.26946 -0.30938,-0.34665 -0.23543,-0.21701 -0.51908,-0.6097 -0.27162,-0.37604 -0.51515,-0.77379 -0.78114,-1.1541 -0.41658,-0.6567 -0.84491,-1.30845 -1.22495,-1.98744 -0.13613,-0.24321 -0.49916,-0.97882 -0.61813,-1.21733 -0.38659,-0.82219 -0.70616,-1.67367 -1.07607,-2.50312 -0.79673,-1.78649 0.25938,0.64468 -0.48448,-1.07751 -0.37964,-0.81353 -0.76641,-1.62054 -0.99887,-2.49009 -0.13757,-0.4216 -0.25776,-0.88056 -0.61394,-1.17047 -0.31973,-0.17441 -0.68399,-0.16686 -1.03723,-0.15003 -0.57801,0.0276 -0.42406,0.021 -1.04056,0.0971 -0.93728,0.14744 -1.88958,0.16477 -2.82814,0.29907 -0.37553,0.0537 -0.90719,0.16723 -1.28537,0.24429 -0.57924,0.082 -1.12363,0.30462 -1.69057,0.43711 -0.2629,0.0614 -0.42232,0.0802 -0.68775,0.12025 -0.31043,0.0354 -0.63159,0.0745 -0.93289,0.16246 -0.0863,0.0252 -0.32865,0.14395 -0.25139,0.0979 1.96698,-1.17191 1.90375,-1.13753 1.30406,-0.69881 -0.41461,0.42786 -0.63576,1.00958 -0.8113,1.56899 -0.16019,0.65076 -0.42292,1.27008 -0.59972,1.91563 -0.0529,0.1932 -0.24327,1.02058 -0.28661,1.20691 -0.23982,1.1646 -0.50152,2.32434 -0.78337,3.47946 -0.22049,0.96083 -0.42039,1.92614 -0.63772,2.88762 -0.21789,0.78517 -0.2634,1.59875 -0.37824,2.40067 -0.0637,0.28034 -0.16561,0.60946 -0.43047,0.77297 -1.31249,0.81028 -1.47247,1.089 -2.58124,1.22357 -0.14296,0.008 -0.28571,0.0238 -0.4289,0.0237 -0.22487,-1e-4 -0.82197,-0.0494 -1.03069,-0.0649 -0.65771,-0.0487 -1.31497,-0.0885 -1.97367,-0.12139 -1.5035,-0.0653 -3.00863,-0.0749 -4.51329,-0.0829 -1.57313,-0.006 -3.14627,-0.004 -4.7194,-0.004 -1.56473,5.3e-4 -3.12947,0.002 -4.69421,0.002 -1.27655,-5.3e-4 -2.5531,0.005 -3.82965,0.008 -0.53773,-0.0436 -1.44512,0.14415 -1.90702,-0.16323 -0.0919,-0.0612 -0.16142,-0.15079 -0.24212,-0.22618 -0.52348,-0.84675 -0.67282,-1.86886 -0.82212,-2.83745 -0.23768,-1.38106 -0.36441,-2.77717 -0.58739,-4.16049 -0.1897,-1.06398 -0.3828,-2.13176 -0.63352,-3.18349 -0.15674,-0.5415 -0.20654,-1.11497 -0.46741,-1.62075 -0.0944,-0.10298 -0.13114,-0.16745 -0.26739,-0.21891 -0.15713,-0.0593 -0.47929,-0.0872 -0.61829,-0.0985 -0.60255,-0.0493 -0.56451,-0.0319 -1.21837,-0.0183 -2.09929,0.0885 -4.19966,0.14202 -6.30044,0.17794 -2.03339,0.0298 -4.06701,0.0379 -6.10058,0.046 -1.355663,0.006 -2.711336,0.006 -4.067005,0.007 -0.9798,-5.3e-4 -1.959591,0.003 -2.939386,0.006 -0.177937,5.3e-4 -0.474686,-0.0131 -0.652502,0.0418 -0.08949,0.0276 -0.33065,0.17613 -0.248274,0.13156 0.483208,-0.26145 0.945525,-0.56643 1.450784,-0.78221 0.109665,-0.0468 -0.164854,0.17269 -0.24012,0.26518 -0.08298,0.10198 -0.156019,0.21167 -0.234029,0.3175 -0.568209,0.85291 -0.915662,1.83273 -1.24224,2.798 -0.362567,1.1097 -0.68403,2.23297 -1.000707,3.35664 -0.221687,0.73546 -0.490053,1.4556 -0.763656,2.17299 -0.227431,0.52074 -0.411142,1.05502 -0.598311,1.59055 -0.50156,1.02555 -1.642697,1.54229 -2.700927,1.88274 -0.804953,0.21752 -1.647558,0.22166 -2.475561,0.24162 -0.908886,0.0571 -1.817171,0.15055 -2.728309,0.16716 -0.519549,0.009 -1.377201,-0.0182 -1.88177,-0.0309 -2.264267,-0.0772 -4.523845,-0.24382 -6.788194,-0.32831 -2.033808,-0.0655 -4.068771,-0.08 -6.103483,-0.0788 -0.67401,-0.0584 -1.5417,0.15302 -2.174203,-0.15111 -0.289351,-0.13914 -0.385241,-0.29038 -0.596979,-0.52235 -0.627224,-1.05641 -0.794845,-2.29419 -1.01491,-3.48244 -0.244046,-1.67021 -0.430281,-3.34732 -0.682588,-5.01659 -0.198448,-0.99532 -0.428286,-1.98167 -0.550556,-2.99008 -0.07305,-0.27327 0.04374,-0.90515 -0.193481,-1.10866 -0.127974,-0.10979 -0.364721,-0.0797 -0.50373,-0.0822 -1.392044,0.17392 -2.767764,0.4517 -4.154823,0.66119 -1.94441,0.22678 -3.89957,0.36304 -5.852272,0.50129 -1.678135,0.18157 -3.360295,0.30924 -5.046313,0.38539 -0.703291,0.01 -1.407961,0.0572 -2.111573,0.0466 -0.56329,-0.008 -1.126906,-0.0662 -1.68773,-0.11491 -0.133328,1.7e-4 -0.267808,-0.017 -0.399986,5.3e-4 -0.34023,0.045 -2.872206,1.12844 1.108969,-0.68634 0.103172,-0.047 -0.170513,0.15089 -0.24276,0.23827 -0.180832,0.21872 -0.311193,0.48138 -0.448136,0.72677 -0.502917,1.05118 -0.740206,2.19836 -1.012007,3.32396 -0.308951,1.14165 -0.57553,2.29303 -0.875229,3.43714 -0.175887,0.81671 -0.357243,1.62838 -0.620738,2.42171 -0.129429,0.36955 -0.350327,0.67657 -0.694791,0.87386 -1.950723,1.11728 -1.246669,0.92026 -2.274332,1.16384 -1.074237,0.15033 -2.166207,0.1181 -3.248416,0.1182 -1.752918,-0.004 -3.505835,-0.009 -5.258755,-0.0105 -1.573888,0.0118 -3.143914,-0.12463 -4.715503,-0.19406 -1.157795,-0.0319 -2.307859,-0.18114 -3.462791,-0.2621 -0.38839,-0.0249 -0.777264,-0.0417 -1.166312,-0.0517 -0.246578,-0.006 -0.389349,0.007 -0.630517,-0.0506 -0.0916,-0.0217 -0.177981,-0.0614 -0.266971,-0.0921 -0.676628,-0.45922 -1.040811,-1.21932 -1.395938,-1.9294 -0.624026,-1.31529 -1.10636,-2.69128 -1.588971,-4.0629 -0.451608,-1.27059 -0.824903,-2.56537 -1.216027,-3.85485 -0.09489,-0.3157 -0.165034,-0.53623 -0.245806,-0.85166 -0.07318,-0.28579 -0.09825,-0.61328 -0.308153,-0.84176 -0.05102,-0.0555 -0.118188,-0.0937 -0.177282,-0.14056 -0.738413,-0.29202 -1.528353,-0.1708 -2.29642,-0.10804 -1.069832,0.0948 -2.1434742,0.12229 -3.2167948,0.13992 -1.0420141,0.0796 -2.0818718,0.18043 -3.1252197,0.24225 -0.1238853,-0.0194 -0.2527173,-0.0186 -0.3716565,-0.0583 -0.6374627,-0.21292 -0.8544512,-0.87132 -1.0037672,-1.45123 -0.1732735,-1.03851 -0.060265,-2.10042 0.092021,-3.13454 0.1136306,-0.58059 0.2439342,-1.15916 0.4704524,-1.70769 0.066195,-0.1603 0.2688403,-0.58203 0.3459991,-0.7445 0.2622563,-0.65509 0.6720856,-1.23198 1.063185,-1.81369 0.8597802,-1.30594 1.1481305,-1.2376 2.8038737,-2.20057 0.076521,-0.0228 0.1505762,-0.0568 0.2295623,-0.0685 0.3246178,-0.0483 0.9365678,0.0532 1.2520165,0.14552 0.5022602,0.16299 0.9930782,0.33762 1.5122102,0.4422 0.09746,0.0147 0.195933,0.0239 0.292386,0.0442 0.297838,0.0628 0.588327,0.16877 0.884391,0.23858 0.47638,0.11233 0.608557,0.11093 1.141474,0.17647 0,0 -1.575209,1.11601 -1.575209,1.11601 v 0 c -0.236884,-0.0276 -0.474816,-0.0474 -0.710652,-0.0829 -0.559313,-0.0842 -1.092535,-0.28639 -1.6523849,-0.36662 -0.517971,-0.11645 -1.0140648,-0.29456 -1.5223873,-0.44509 -0.4574799,-0.0998 -0.9589069,-0.17356 -1.3927283,0.0427 0.4946097,-0.29219 0.9892194,-0.58438 1.4838291,-0.87657 -0.065595,0.0458 -0.1355802,0.0858 -0.1967857,0.1373 -0.2918899,0.24555 -0.5175078,0.60619 -0.745305,0.90728 -0.3811654,0.58314 -0.8219938,1.13861 -1.0807616,1.7916 -0.1177213,0.2441 -0.2458701,0.48335 -0.3551451,0.73134 -0.2359443,0.53547 -0.3736031,1.10259 -0.4943168,1.67306 -0.1637623,1.00781 -0.2863461,2.04533 -0.1207948,3.06082 0.1266241,0.50696 0.2983161,1.1062 0.8842796,1.2493 0.1119777,0.0273 0.2294718,0.0221 0.3442076,0.0332 1.040417,-0.0598 2.0771529,-0.16419 3.1173123,-0.2268 1.0738519,-0.0218 2.1477479,-0.0583 3.2178429,-0.15571 0.810022,-0.0645 1.656304,-0.17246 2.404112,0.22315 0.179647,0.16595 0.258184,0.20638 0.363745,0.43887 0.204074,0.44947 0.189914,1.05191 0.397663,1.50703 0.20823,0.71527 0.10544,0.3464 0.306896,1.107 0.262809,0.9269 0.593326,1.83342 0.878897,2.75329 0.482619,1.36115 0.965527,2.72738 1.603997,4.02518 0.293835,0.56532 0.603938,1.24298 1.116336,1.65181 0.06637,0.053 0.145835,0.087 0.218752,0.13051 0.656444,0.17653 1.349792,0.083 2.020415,0.171 1.146567,0.0921 2.289325,0.23967 3.439962,0.27166 1.56416,0.0766 3.127184,0.21278 4.694202,0.19874 1.757077,0.003 3.514183,0.008 5.271252,3e-5 1.083458,-0.01 2.185093,0.0248 3.252356,-0.18707 0.836827,-0.27659 0.337791,-0.13573 -1.127808,0.75239 -0.08135,0.0493 0.170349,-0.0856 0.249968,-0.13769 0.154048,-0.10073 0.272817,-0.20256 0.372642,-0.35812 0.05164,-0.0805 0.08637,-0.17062 0.129553,-0.25594 0.0744,-0.21697 0.157879,-0.43101 0.223827,-0.6507 0.174617,-0.58168 0.27587,-1.18124 0.425066,-1.76918 0.09589,-0.36814 0.201724,-0.73364 0.297138,-1.1019 0.201263,-0.77679 0.340825,-1.56931 0.585681,-2.33505 0.27568,-1.13322 0.502971,-2.28803 0.974596,-3.36129 0.105233,-0.20397 0.445283,-0.92607 0.638728,-1.05101 1.312865,-0.84795 1.537732,-1.22728 2.717403,-1.16287 1.252961,0.11479 2.505898,0.13752 3.76306,0.0626 1.679115,-0.0731 3.353324,-0.20768 5.025536,-0.37634 1.951312,-0.13758 3.90635,-0.26732 5.846825,-0.51702 1.409812,-0.22404 2.810201,-0.53754 4.233535,-0.65607 0.267068,0.0492 0.417478,0.0297 0.614582,0.23809 0.284731,0.30107 0.143864,0.81884 0.216858,1.18207 0.106164,1.01219 0.322559,2.00418 0.511304,3.00335 0.239252,1.66839 0.425485,3.34351 0.67917,5.0096 0.220811,1.14697 0.387374,2.34738 0.995029,3.3668 0.199962,0.20605 0.270015,0.32234 0.539663,0.43409 0.609465,0.25259 1.465895,0.0642 2.107398,0.13258 2.025163,0.0189 4.050628,0.0361 6.074794,0.10724 2.268452,0.0847 4.532447,0.25487 6.801532,0.31457 0.588949,0.008 1.29639,0.0257 1.890617,0.008 0.921176,-0.0274 1.838259,-0.13103 2.757898,-0.18378 0.822791,-0.0274 1.664113,-0.0404 2.452235,-0.30526 0.799444,-0.34486 0.369276,-0.17285 -1.198399,0.74778 -0.05583,0.0328 0.115589,-0.0598 0.167109,-0.099 0.169156,-0.12876 0.25414,-0.3204 0.384947,-0.48219 0.104857,-0.25317 0.164066,-0.51437 0.261721,-0.7703 0.16597,-0.43497 0.05722,-0.10933 0.235818,-0.5412 0.03863,-0.0934 0.07079,-0.18937 0.10619,-0.28405 0.289518,-0.71128 0.546912,-1.43662 0.791348,-2.16459 0.321886,-1.12611 0.651258,-2.2503 1.00249,-3.36744 0.04181,-0.12646 0.311338,-0.94712 0.362209,-1.07945 0.01207,-0.0314 0.390054,-0.89835 0.407419,-0.93786 0.06649,-0.15129 0.124381,-0.30677 0.200898,-0.45324 0.06756,-0.12933 0.153554,-0.24817 0.23033,-0.37225 0.01466,-0.0213 0.409404,-0.60178 0.445829,-0.62679 0.620961,-0.42628 1.275027,-0.80309 1.929159,-1.17648 0.0847,-0.0483 0.184092,-0.0673 0.280077,-0.0846 0.179028,-0.0322 0.481468,-0.0227 0.65927,-0.0221 0.973376,0.004 1.946746,0.008 2.92013,0.008 1.348436,0.002 2.696876,0.004 4.045306,0.008 2.02445,0.003 4.049,0.001 6.07327,-0.0299 2.11433,-0.0377 4.2279,-0.0989 6.33995,-0.20682 0.53078,-0.008 1.45405,-0.0697 1.94789,0.18767 0.15431,0.0804 0.20955,0.17441 0.31656,0.30434 0.26537,0.52426 0.3262,1.10839 0.4733,1.67181 0.24643,1.06017 0.41523,2.14069 0.61227,3.21067 0.22193,1.38283 0.35104,2.77837 0.59427,4.1579 0.1451,0.9202 0.28987,1.89681 0.78517,2.70238 0.0683,0.056 0.12732,0.12566 0.20476,0.16809 0.43322,0.23739 1.35533,0.0609 1.84567,0.11688 1.26968,0.002 2.53936,0.008 3.80904,0.007 1.56373,2.3e-4 3.12746,8e-4 4.6912,-5e-5 1.57436,-7.9e-4 3.14874,-0.003 4.7231,0.003 1.50789,0.008 3.01607,0.0219 4.5228,0.0864 0.72606,0.0352 0.66795,0.0298 1.3773,0.0739 0.5419,0.0337 1.09276,0.0975 1.63663,0.0753 0.14264,-0.006 0.28419,-0.0275 0.42628,-0.0412 0.9116,-0.17541 1.37242,-0.5804 -0.82433,0.69723 -0.0772,0.0449 0.15496,-0.0912 0.22112,-0.15119 0.20729,-0.18782 0.18402,-0.23206 0.27526,-0.49594 0.13651,-0.80391 0.15639,-1.62779 0.38023,-2.41779 0.23129,-0.96147 0.42162,-1.9328 0.64882,-2.89555 0.28618,-1.15461 0.55251,-2.31399 0.79017,-3.47966 0.0928,-0.40468 0.17193,-0.81261 0.27448,-1.21493 0.16446,-0.64516 0.43332,-1.25787 0.58468,-1.90704 0.16025,-0.59019 0.38664,-1.17232 0.74967,-1.66915 0.93756,-0.885 2.05233,-1.36742 3.28886,-1.48491 0.79493,-0.13862 1.55659,-0.4072 2.35188,-0.54544 0.46594,-0.088 0.80531,-0.15814 1.28165,-0.22121 0.94531,-0.12517 1.90076,-0.16516 2.84363,-0.31251 0.72107,-0.0816 1.55359,-0.24658 2.20411,0.16675 0.37053,0.34954 0.51919,0.80029 0.65888,1.28042 0.2136,0.86639 0.59153,1.66744 0.96369,2.47549 0.50539,1.19581 1.03437,2.38214 1.54254,3.57691 0.0857,0.16862 0.51383,1.01709 0.61722,1.1997 0.38119,0.67328 0.80988,1.32038 1.23081,1.96906 0.26687,0.37566 0.50971,0.77009 0.78324,1.14069 0.26075,0.35329 0.22794,0.27854 0.52044,0.59905 0.0767,0.084 0.14968,0.1713 0.22452,0.25695 0.45092,0.44352 0.79184,0.58168 1.43176,0.54886 0.57393,-0.004 1.14813,-0.0121 1.72094,-0.0517 0.89261,-0.064 1.78209,-0.17012 2.67664,-0.20453 1.34291,1.2e-4 2.68596,-8e-5 4.02865,-0.0282 1.44932,-0.0348 2.89764,-0.0948 4.34309,-0.20987 1.12007,-0.0522 2.24141,-0.0192 3.36238,-0.0405 1.04305,-0.019 2.08753,-0.0491 3.1242,-0.17511 0.86574,-0.11133 1.73061,-0.22805 2.59577,-0.34271 0.54326,-0.0677 1.10511,-0.08 1.60231,-0.33804 -3.94244,2.32061 -1.35623,0.86466 -1.10274,0.61576 0.0523,-0.0514 0.098,-0.11079 0.13269,-0.17538 0.10049,-0.18718 0.0949,-0.30035 0.12305,-0.51 0.002,-0.71722 0.005,-1.43443 0.007,-2.15166 -5.3e-4,-0.89835 2.6e-4,-1.7967 -0.003,-2.69505 -0.003,-0.86428 -0.004,-1.72857 0.003,-2.59283 0.0126,-0.92688 0.0251,-1.8554 0.13814,-2.77681 0.14093,-1.05102 0.36257,-2.0889 0.47824,-3.14362 0.11008,-0.7388 0.23591,-1.52619 0.0755,-2.26438 -0.0207,-0.0509 -0.0291,-0.10872 -0.062,-0.15279 -0.1164,-0.15619 -0.81679,0.24192 -0.96437,0.27775 -0.74907,0.24141 -1.50438,0.46233 -2.2459,0.727 -0.70636,0.24937 -1.4072,0.5113 -2.10401,0.78583 -0.6852,0.24049 -1.38344,0.4486 -2.09764,0.58415 -0.62144,0.14285 -1.24961,0.2837 -1.89214,0.25397 -1.06766,-0.004 -2.13531,-0.011 -3.20289,-0.0248 -1.42939,-0.0281 -2.8613,-0.061 -4.28369,-0.21598 -1.18364,-0.14246 -2.37682,-0.25593 -3.5259,-0.59134 -1.36156,-0.37444 -2.71988,-0.75758 -4.06258,-1.19591 -1.43314,-0.43039 -2.86109,-0.87399 -4.26881,-1.38265 -1.21844,-0.40032 -2.42605,-0.82475 -3.61557,-1.30526 -0.93739,-0.33252 -1.87964,-0.64957 -2.8072,-1.00902 -0.78383,-0.26826 -1.56823,-0.53575 -2.38189,-0.70159 -1.1107,-0.24573 -2.21746,-0.50974 -3.33614,-0.71811 -1.11771,-0.2166 -2.24577,-0.36581 -3.3762,-0.49911 -1.05962,-0.0918 -2.1177,-0.15083 -3.1822,-0.11647 -1.1154,7.9e-4 -2.23078,-0.004 -3.34618,-0.003 -1.1745,0.001 -2.34949,0.002 -3.52314,0.0525 -1.20677,0.0629 -2.41111,0.16638 -3.60362,0.36824 -0.99225,0.1405 -1.97668,0.34805 -2.9291,0.66347 -0.91022,0.32918 -1.81152,0.68194 -2.7242,1.00447 -1.0109,0.36595 -1.9984,0.78666 -2.95757,1.27346 -0.89744,0.45379 -1.77598,0.9499 -2.71634,1.31243 -1.00036,0.39828 -1.99646,0.81177 -3.02576,1.13112 -0.87518,0.26519 -1.74992,0.53037 -2.63215,0.77167 -0.93768,0.27656 -1.8877,0.49234 -2.84645,0.68389 -1.14863,0.20177 -2.29894,0.40143 -3.4565,0.54426 -0.91267,0.10516 -1.83095,0.21349 -2.74998,0.22272 -0.76986,10e-4 -1.53972,10e-4 -2.30957,0.002 -0.75208,-0.003 -1.50494,-0.003 -2.25582,-0.0506 -0.834262,-0.0701 -1.66127,-0.19113 -2.487667,-0.32384 -1.319213,-0.1605 -2.618941,-0.42992 -3.92289,-0.68284 -1.835732,-0.38928 -3.670718,-0.78221 -5.500288,-1.19947 -1.867297,-0.41794 -3.735623,-0.83162 -5.592344,-1.2951 -1.75002,-0.47574 -3.501528,-0.9521 -5.281388,-1.30542 -1.636379,-0.31343 -3.276142,-0.60214 -4.921141,-0.86583 -0.717992,-0.12598 -1.435727,-0.25991 -2.148202,-0.4147 -1.407705,-0.30585 0.04204,-0.0131 -1.319697,-0.3174 -0.206261,-0.0461 -0.414417,-0.0832 -0.621625,-0.12484 -1.207051,-0.17893 -2.420985,-0.27778 -3.636016,-0.38532 -1.145984,-0.0915 -2.295884,-0.13166 -3.442004,-0.2245 -1.06757,-0.0331 -2.135875,0.0273 -3.198344,0.13461 -1.039683,0.11657 -2.079003,0.22444 -3.121382,0.31409 -1.26491,0.13149 -2.537995,0.17485 -3.796035,0.37003 -1.140156,0.17918 -2.282958,0.34043 -3.421997,0.52535 -1.111692,0.22631 -2.224315,0.44693 -3.33258,0.6898 -0.397174,0.0903 -0.796767,0.17005 -1.192708,0.2656 -0.713501,0.17219 -1.408022,0.41335 -2.118018,0.59868 -0.906169,0.28251 -1.805247,0.58611 -2.711686,0.86767 -0.787143,0.23698 -1.589624,0.41579 -2.376945,0.65197 -0.600567,0.18354 -1.21172,0.32233 -1.819899,0.4777 -0.828524,0.18564 -1.668923,0.31006 -2.502887,0.46732 -0.647176,0.14233 -1.296818,0.26553 -1.963449,0.22329 -0.648843,-7.9e-4 -1.297686,-0.002 -1.946532,-0.003 -0.800804,-1.4e-4 -1.601608,-0.005 -2.402415,-0.002 -0.835859,7.9e-4 -1.671987,0.003 -2.507351,0.035 -0.799493,0.0369 -1.596611,0.10152 -2.389236,0.21525 -0.60244,0.0445 -1.207091,0.0166 -1.810044,-0.0106 -0.690935,-0.0456 -1.382234,-0.11341 -2.058548,-0.26802 -0.604652,-0.12144 -1.21582,-0.21036 -1.809482,-0.38419 -0.557921,-0.1242 -1.093211,-0.32532 -1.635003,-0.50515 -0.256894,-0.0936 -0.515741,-0.17795 -0.764554,-0.29218 -0.110014,-0.0505 -0.351189,-0.17558 -0.46614,-0.22362 -0.07145,-0.0299 -0.145598,-0.0528 -0.218398,-0.0792 -0.487338,-0.16175 -0.983909,-0.32822 -1.420594,-0.60189 -0.5951162,-0.41545 -1.1942302,-0.82673 -1.7618456,-1.27967 0,0 1.6791456,-1.05472 1.6791456,-1.05472 z"
       inkscape:connector-curvature="0" />
    <path
       style="fill:#ffdd55;stroke-width:0.26458332"
       id="path47"
       d="m 100.54478,116.04986 c 0.0204,-1.09038 0.0205,-2.18106 0.024,-3.2716 0.004,-1.33899 -0.004,-2.67797 -0.005,-4.01694 0.0294,-0.95945 -0.0167,-1.8862 -0.12541,-2.83795 -0.12953,-0.61421 -0.25642,-1.22749 -0.36291,-1.84615 -0.009,-0.0391 -0.061,-0.13723 -0.0264,-0.11719 0.0443,0.0256 0.0429,0.0928 0.0644,0.13914 0.56037,-0.31682 1.09919,-0.67523 1.68112,-0.95047 0.0487,-0.023 -0.009,0.10728 -0.0121,0.16105 -0.008,0.16827 -0.0105,0.39865 -0.0132,0.56128 0.007,1.01912 -0.0115,2.03437 -0.085,3.05086 -0.088,1.07195 -0.14032,2.14616 -0.16683,3.22124 -0.0148,0.66069 -0.0118,1.32155 -0.0143,1.98234 -5.3e-4,0.60291 0.002,1.20582 0.003,1.80873 -0.003,0.61637 -8e-4,1.23274 -1e-5,1.84911 -0.0526,0.55567 -0.15882,1.10355 -0.2136,1.65931 -0.0727,1.07681 0.0267,0.76221 -1.891156,1.34952 -0.07387,0.0226 -0.06987,-0.13817 -0.09686,-0.21056 -0.03529,-0.0946 -0.05972,-0.19296 -0.08958,-0.28945 -0.145706,-0.49793 -0.06817,-0.23399 -0.232812,-0.79176 0,0 1.715658,-0.93955 1.715658,-0.93955 v 0 c 0.17592,0.55163 0.0934,0.2909 0.248,0.78208 0.0278,0.0872 0.0502,0.17626 0.0832,0.2616 0.0233,0.0602 0.13707,0.1353 0.0853,0.17385 -0.52768,0.39294 -1.127144,0.67895 -1.689375,1.02064 -0.0204,0.0124 0.05491,-0.0105 0.06367,-0.0327 0.05443,-0.13779 -0.02919,-0.30962 0.03494,-0.44308 0.04899,-0.55191 0.141126,-1.09648 0.224062,-1.64393 7.94e-4,-0.61619 0.0024,-1.23238 -7.94e-4,-1.84856 2.65e-4,-0.60342 7.94e-4,-1.20683 -2.3e-4,-1.81025 -0.0021,-0.66457 0.0039,-1.32919 0.02394,-1.99349 0.03579,-1.08012 0.09185,-2.15935 0.178821,-3.23667 0.02133,-0.29679 0.06678,-0.87925 0.07456,-1.18125 0.0158,-0.6142 -0.0186,-1.22971 -0.0109,-1.84402 -0.001,-0.14766 -0.006,-0.72792 -0.004,-0.7293 0.30378,-0.23498 1.66292,-1.86951 1.8182,-0.885 0.0859,0.62703 0.21882,1.24355 0.34957,1.8625 0.0465,0.42512 0.10797,0.85361 0.12204,1.28144 0.0173,0.52781 -0.0194,1.05757 -0.005,1.5855 -8e-4,1.34054 -0.009,2.68107 -0.005,4.02162 0.003,1.0824 0.003,2.16494 0.024,3.24718 0,0 -1.768,0.90084 -1.768,0.90084 z"
       inkscape:connector-curvature="0" />
    <path
       style="fill:#ffdd55;stroke-width:0.26458332"
       id="path49"
       d="m 89.624928,105.32011 c 0.944917,0.0109 1.889956,0.009 2.834928,0.01 1.178582,10e-4 2.357163,0.002 3.535744,0.004 1.487887,0.003 2.975777,0.004 4.46367,0.004 1.31207,-2.6e-4 2.62414,-0.005 3.93621,-0.008 0.93649,0.0933 1.88057,0.13211 2.81325,0.25816 0.53898,0.0568 1.06534,0.16123 1.59128,0.28844 0,0 -1.61864,1.11853 -1.61864,1.11853 v 0 c -0.51835,-0.12431 -1.0397,-0.21716 -1.5698,-0.27698 -0.92728,-0.1091 -1.86093,-0.17209 -2.79164,-0.24345 -1.30503,-0.003 -2.61005,-0.007 -3.915086,-0.008 -1.491895,5.3e-4 -2.98379,0.002 -4.475681,0.004 -1.181814,0.002 -2.363628,0.002 -3.545443,0.004 -0.953788,5.3e-4 -1.90764,-0.001 -2.861376,0.01 0,0 1.602584,-1.16435 1.602584,-1.16435 z"
       inkscape:connector-curvature="0"
       inkscape:export-xdpi="96"
       inkscape:export-ydpi="96" />
    <path
       style="fill:#ffdd55;stroke-width:0.50507629"
       d="m 489.18064,512.29232 -38.05179,-0.26039 -0.96872,-1.19653 c -1.46651,-1.81138 -2.29745,-5.35871 -3.97889,-16.98621 -1.60276,-11.08341 -3.69276,-22.33263 -4.71671,-25.3873 -0.33008,-0.98469 -1.20445,-2.2387 -1.94303,-2.78668 -1.3163,-0.97662 -1.76624,-0.98501 -22.72844,-0.42379 -11.76204,0.31491 -30.37372,0.57109 -41.35928,0.5693 l -19.97374,-0.003 -3.72782,2.29836 c -2.0503,1.26409 -4.04352,2.68462 -4.42939,3.15672 -1.75514,2.14743 -4.86583,9.76332 -7.3776,18.0626 -1.50806,4.98286 -3.764,11.78715 -5.01319,15.12066 l -2.27125,6.06091 -9.27527,0.69841 c -8.14906,0.6136 -11.51372,0.59704 -27.71056,-0.13646 -10.13941,-0.45918 -23.66283,-0.84311 -30.05204,-0.85318 -7.63796,-0.0121 -12.21739,-0.22479 -13.37041,-0.62116 -3.4697,-1.19274 -5.09153,-6.29678 -7.33337,-23.07873 -0.72363,-5.41694 -1.75931,-12.19019 -2.30152,-15.05166 -0.5422,-2.86147 -0.98582,-6.16334 -0.98582,-7.33749 0,-1.17415 -0.35382,-2.63996 -0.78626,-3.25736 -1.04705,-1.49487 -3.51763,-1.47517 -12.61103,0.10053 -7.62719,1.32165 -13.90041,2.01102 -25.74613,2.8293 -4.16687,0.28785 -8.14435,0.65901 -8.83883,0.82483 -0.69448,0.16581 -7.96771,0.44316 -16.16274,0.61633 l -14.90006,0.31485 -3.28269,2.27285 c -4.66148,3.22747 -5.64564,5.49757 -10.0725,23.23351 -1.97609,7.91707 -3.82463,15.11295 -4.10786,15.99085 l -0.51497,1.59617 -4.90029,0.36854 c -6.06372,0.45605 -35.8202,-0.0536 -45.053839,-0.77167 -3.750191,-0.29164 -9.490029,-0.72887 -12.755196,-0.97162 -4.018058,-0.29873 -6.343354,-0.70785 -7.195054,-1.26591 -2.732851,-1.79063 -9.225404,-17.47119 -13.404682,-32.37447 -2.896168,-10.32772 -3.064813,-10.68055 -5.446161,-11.39401 -1.882472,-0.56401 -14.544873,-0.18526 -28.935321,0.86549 -3.970677,0.28993 -4.441071,0.22585 -5.402929,-0.736 -0.579472,-0.57948 -1.319967,-2.03154 -1.645544,-3.22681 -0.738831,-2.71242 -0.346244,-9.64968 0.796303,-14.07116 0.897393,-3.47278 4.493769,-10.85397 6.506608,-13.35415 l 1.218497,-1.51351 3.711046,0.93878 c 2.041077,0.51633 4.733827,1.55028 5.983891,2.29766 4.867205,2.90998 15.725753,6.70594 23.459478,8.20102 6.481216,1.25295 8.878015,1.28871 36.897136,0.55044 23.629927,-0.62262 26.822227,-1.13249 48.671147,-7.77357 4.62136,-1.40468 9.87982,-2.99429 11.68547,-3.53246 5.69525,-1.69747 21.12563,-4.84014 30.30457,-6.17206 15.8902,-2.30577 36.72563,-4.01942 44.44672,-3.65562 11.8483,0.55828 23.26361,1.81752 30.05203,3.31508 3.6113,0.79667 10.77075,2.16682 15.90991,3.04477 12.75533,2.17909 16.75897,3.03297 29.31978,6.25322 19.94226,5.11266 53.58983,12.29195 62.0187,13.23276 2.19759,0.24529 3.49313,0.66924 4.12819,1.35091 0.602,0.64617 1.15974,0.84289 1.59555,0.56276 0.36852,-0.23686 6.46578,-0.57282 13.54948,-0.74657 17.79048,-0.43638 27.83852,-1.97382 44.34524,-6.78524 9.56676,-2.78854 17.50652,-5.89937 26.36544,-10.33007 3.75019,-1.87562 10.56872,-4.7811 15.15228,-6.45661 15.88782,-5.80775 18.93784,-6.24384 45.70941,-6.53561 22.45013,-0.24466 26.40311,0.0224 39.64848,2.67852 10.43387,2.09234 15.42973,3.50803 25.75889,7.29938 25.32665,9.29623 46.53394,15.87128 56.12282,17.40017 5.95818,0.95 19.39371,1.76227 29.3073,1.77183 9.51235,0.009 12.30431,-0.58601 27.49726,-5.86182 6.70378,-2.32792 12.33447,-4.23257 12.51266,-4.23257 0.71291,0 0.24142,7.76974 -0.93485,15.40482 -1.14935,7.46027 -1.24582,9.48579 -1.25577,26.36043 -0.007,11.34228 -0.19809,18.39494 -0.50427,18.58418 -1.64953,1.01946 -16.49235,2.2767 -32.58903,2.7604 -18.80379,0.56505 -50.50677,1.57765 -51.77032,1.65355 -2.93247,0.17616 -3.98929,-0.21878 -6.04794,-2.2602 -2.66129,-2.63904 -8.7963,-11.8528 -11.51851,-17.29886 -2.76762,-5.53701 -9.34614,-20.97986 -10.67903,-25.06885 -1.32845,-4.07525 -2.34022,-5.06558 -5.46326,-5.34758 -3.39901,-0.30693 -18.62363,1.60312 -24.90188,3.12414 -2.90484,0.70376 -5.68493,1.27985 -6.17804,1.28021 -3.24946,0.002 -10.32275,3.96883 -12.02536,6.74342 -1.36199,2.21941 -4.1738,11.42197 -5.96465,19.5212 -0.82923,3.75019 -2.40886,10.79601 -3.51028,15.65736 -1.10142,4.86136 -2.1642,10.14572 -2.36173,11.74303 l -0.35911,2.90419 -4.61377,-0.11842 c -2.53761,-0.0651 -21.73708,-0.23559 -42.66556,-0.37881 z"
       id="path51"
       inkscape:connector-curvature="0"
       transform="scale(0.26458333)" />
  </g>
</svg>
